<?xml version="1.0" standalone="no"?>
 <!DOCTYPE svg PUBLIC "-//W3C//DTD SVG 1.1//EN" 
 "http://www.w3.org/Graphics/SVG/1.1/DTD/svg11.dtd"> 
<svg
  xmlns:svg="http://www.w3.org/2000/svg"
  xmlns="http://www.w3.org/2000/svg"
  xmlns:xlink="http://www.w3.org/1999/xlink"
  version="1.1"
  width="840.9940mm" height="594.0044mm" viewBox="0.0000 0.0000 840.9940 594.0044">
<title>SVG Image created as CUBESAT-F_Paste.svg date 2024/03/28 03:02:18 </title>
  <desc>Image generated by PCBNEW </desc>
<g style="fill:#000000; fill-opacity:1.0000;stroke:#000000; stroke-opacity:1.0000;
stroke-linecap:round; stroke-linejoin:round;"
 transform="translate(0 0) scale(1 1)">
</g>
<g style="fill:#000000; fill-opacity:0.0; 
stroke:#000000; stroke-width:0.0000; stroke-opacity:1; 
stroke-linecap:round; stroke-linejoin:round;">
</g>
<g style="fill:#000000; fill-opacity:1.0000; 
stroke:#000000; stroke-width:0.0100; stroke-opacity:1; 
stroke-linecap:round; stroke-linejoin:round;">
<path style="fill:#000000; fill-opacity:1.0000; 
stroke:#000000; stroke-width:0.0100; stroke-opacity:1; 
stroke-linecap:round; stroke-linejoin:round;fill-rule:evenodd;"
d="M 187.6800,134.3150
187.6800,134.6650
187.6000,134.7450
187.0200,134.7450
186.5700,135.1950
186.4500,135.1950
186.1900,134.9350
186.1900,134.8150
186.6400,134.3650
186.6400,134.3150
186.7200,134.2350
187.6000,134.2350
Z" /> 
<path style="fill:#000000; fill-opacity:1.0000; 
stroke:#000000; stroke-width:0.0100; stroke-opacity:1; 
stroke-linecap:round; stroke-linejoin:round;fill-rule:evenodd;"
d="M 189.2800,134.3150
189.2800,134.3650
189.7300,134.8150
189.7300,134.9350
189.4700,135.1950
189.3500,135.1950
188.9000,134.7450
188.3200,134.7450
188.2400,134.6650
188.2400,134.3150
188.3200,134.2350
189.2000,134.2350
Z" /> 
<path style="fill:#000000; fill-opacity:1.0000; 
stroke:#000000; stroke-width:0.0100; stroke-opacity:1; 
stroke-linecap:round; stroke-linejoin:round;fill-rule:evenodd;"
d="M 187.0200,130.6650
187.3700,130.6650
187.4600,130.7550
187.4600,130.8750
187.9600,131.3650
187.9600,131.5650
187.4600,132.0650
187.4600,132.1850
187.3700,132.2750
186.7200,132.2750
186.6400,132.1950
186.6400,131.0450
186.1300,130.5350
186.1300,130.3650
186.3400,130.1550
186.5100,130.1550
Z" /> 
<path style="fill:#000000; fill-opacity:1.0000; 
stroke:#000000; stroke-width:0.0100; stroke-opacity:1; 
stroke-linecap:round; stroke-linejoin:round;fill-rule:evenodd;"
d="M 189.7900,130.3650
189.7900,130.5350
189.2800,131.0450
189.2800,132.1950
189.2000,132.2750
188.5500,132.2750
188.4600,132.1850
188.4600,132.0650
187.9600,131.5650
187.9600,131.3750
188.4600,130.8750
188.4600,130.7650
188.5600,130.6650
188.8900,130.6650
189.4000,130.1550
189.5800,130.1550
Z" /> 
</g>
<g style="fill:#000000; fill-opacity:1.0000; 
stroke:#000000; stroke-width:0.0001; stroke-opacity:1; 
stroke-linecap:round; stroke-linejoin:round;">
<path style="fill:#000000; fill-opacity:1.0000; 
stroke:#000000; stroke-width:0.0001; stroke-opacity:1; 
stroke-linecap:round; stroke-linejoin:round;fill-rule:evenodd;"
d="M 120.9000,92.4600
119.7000,92.4600
119.7000,91.6600
120.9000,91.6600
Z" /> 
<path style="fill:#000000; fill-opacity:1.0000; 
stroke:#000000; stroke-width:0.0001; stroke-opacity:1; 
stroke-linecap:round; stroke-linejoin:round;fill-rule:evenodd;"
d="M 120.9000,93.5600
119.7000,93.5600
119.7000,92.7600
120.9000,92.7600
Z" /> 
<path style="fill:#000000; fill-opacity:1.0000; 
stroke:#000000; stroke-width:0.0001; stroke-opacity:1; 
stroke-linecap:round; stroke-linejoin:round;fill-rule:evenodd;"
d="M 120.9000,94.6600
119.7000,94.6600
119.7000,93.8600
120.9000,93.8600
Z" /> 
<path style="fill:#000000; fill-opacity:1.0000; 
stroke:#000000; stroke-width:0.0001; stroke-opacity:1; 
stroke-linecap:round; stroke-linejoin:round;fill-rule:evenodd;"
d="M 120.9000,95.7600
119.7000,95.7600
119.7000,94.9600
120.9000,94.9600
Z" /> 
<path style="fill:#000000; fill-opacity:1.0000; 
stroke:#000000; stroke-width:0.0001; stroke-opacity:1; 
stroke-linecap:round; stroke-linejoin:round;fill-rule:evenodd;"
d="M 120.9000,96.8600
119.7000,96.8600
119.7000,96.0600
120.9000,96.0600
Z" /> 
<path style="fill:#000000; fill-opacity:1.0000; 
stroke:#000000; stroke-width:0.0001; stroke-opacity:1; 
stroke-linecap:round; stroke-linejoin:round;fill-rule:evenodd;"
d="M 120.9000,97.9600
119.7000,97.9600
119.7000,97.1600
120.9000,97.1600
Z" /> 
<path style="fill:#000000; fill-opacity:1.0000; 
stroke:#000000; stroke-width:0.0001; stroke-opacity:1; 
stroke-linecap:round; stroke-linejoin:round;fill-rule:evenodd;"
d="M 120.9000,99.0600
119.7000,99.0600
119.7000,98.2600
120.9000,98.2600
Z" /> 
<path style="fill:#000000; fill-opacity:1.0000; 
stroke:#000000; stroke-width:0.0001; stroke-opacity:1; 
stroke-linecap:round; stroke-linejoin:round;fill-rule:evenodd;"
d="M 120.9000,102.0600
119.7000,102.0600
119.7000,101.2600
120.9000,101.2600
Z" /> 
<path style="fill:#000000; fill-opacity:1.0000; 
stroke:#000000; stroke-width:0.0001; stroke-opacity:1; 
stroke-linecap:round; stroke-linejoin:round;fill-rule:evenodd;"
d="M 120.9000,103.1600
119.7000,103.1600
119.7000,102.3600
120.9000,102.3600
Z" /> 
<path style="fill:#000000; fill-opacity:1.0000; 
stroke:#000000; stroke-width:0.0001; stroke-opacity:1; 
stroke-linecap:round; stroke-linejoin:round;fill-rule:evenodd;"
d="M 120.9000,104.2600
119.7000,104.2600
119.7000,103.4600
120.9000,103.4600
Z" /> 
<path style="fill:#000000; fill-opacity:1.0000; 
stroke:#000000; stroke-width:0.0001; stroke-opacity:1; 
stroke-linecap:round; stroke-linejoin:round;fill-rule:evenodd;"
d="M 120.9000,105.3600
119.7000,105.3600
119.7000,104.5600
120.9000,104.5600
Z" /> 
<path style="fill:#000000; fill-opacity:1.0000; 
stroke:#000000; stroke-width:0.0001; stroke-opacity:1; 
stroke-linecap:round; stroke-linejoin:round;fill-rule:evenodd;"
d="M 120.9000,106.4600
119.7000,106.4600
119.7000,105.6600
120.9000,105.6600
Z" /> 
<path style="fill:#000000; fill-opacity:1.0000; 
stroke:#000000; stroke-width:0.0001; stroke-opacity:1; 
stroke-linecap:round; stroke-linejoin:round;fill-rule:evenodd;"
d="M 121.8000,92.3600
120.9000,92.3600
120.9000,91.7600
121.8000,91.7600
Z" /> 
<path style="fill:#000000; fill-opacity:1.0000; 
stroke:#000000; stroke-width:0.0001; stroke-opacity:1; 
stroke-linecap:round; stroke-linejoin:round;fill-rule:evenodd;"
d="M 121.8000,93.4600
120.9000,93.4600
120.9000,92.8600
121.8000,92.8600
Z" /> 
<path style="fill:#000000; fill-opacity:1.0000; 
stroke:#000000; stroke-width:0.0001; stroke-opacity:1; 
stroke-linecap:round; stroke-linejoin:round;fill-rule:evenodd;"
d="M 121.8000,94.5600
120.9000,94.5600
120.9000,93.9600
121.8000,93.9600
Z" /> 
<path style="fill:#000000; fill-opacity:1.0000; 
stroke:#000000; stroke-width:0.0001; stroke-opacity:1; 
stroke-linecap:round; stroke-linejoin:round;fill-rule:evenodd;"
d="M 121.8000,95.6600
120.9000,95.6600
120.9000,95.0600
121.8000,95.0600
Z" /> 
<path style="fill:#000000; fill-opacity:1.0000; 
stroke:#000000; stroke-width:0.0001; stroke-opacity:1; 
stroke-linecap:round; stroke-linejoin:round;fill-rule:evenodd;"
d="M 121.8000,96.7600
120.9000,96.7600
120.9000,96.1600
121.8000,96.1600
Z" /> 
<path style="fill:#000000; fill-opacity:1.0000; 
stroke:#000000; stroke-width:0.0001; stroke-opacity:1; 
stroke-linecap:round; stroke-linejoin:round;fill-rule:evenodd;"
d="M 121.8000,97.8600
120.9000,97.8600
120.9000,97.2600
121.8000,97.2600
Z" /> 
<path style="fill:#000000; fill-opacity:1.0000; 
stroke:#000000; stroke-width:0.0001; stroke-opacity:1; 
stroke-linecap:round; stroke-linejoin:round;fill-rule:evenodd;"
d="M 121.8000,98.9600
120.9000,98.9600
120.9000,98.3600
121.8000,98.3600
Z" /> 
<path style="fill:#000000; fill-opacity:1.0000; 
stroke:#000000; stroke-width:0.0001; stroke-opacity:1; 
stroke-linecap:round; stroke-linejoin:round;fill-rule:evenodd;"
d="M 121.8000,101.9600
120.9000,101.9600
120.9000,101.3600
121.8000,101.3600
Z" /> 
<path style="fill:#000000; fill-opacity:1.0000; 
stroke:#000000; stroke-width:0.0001; stroke-opacity:1; 
stroke-linecap:round; stroke-linejoin:round;fill-rule:evenodd;"
d="M 121.8000,103.0600
120.9000,103.0600
120.9000,102.4600
121.8000,102.4600
Z" /> 
<path style="fill:#000000; fill-opacity:1.0000; 
stroke:#000000; stroke-width:0.0001; stroke-opacity:1; 
stroke-linecap:round; stroke-linejoin:round;fill-rule:evenodd;"
d="M 121.8000,104.1600
120.9000,104.1600
120.9000,103.5600
121.8000,103.5600
Z" /> 
<path style="fill:#000000; fill-opacity:1.0000; 
stroke:#000000; stroke-width:0.0001; stroke-opacity:1; 
stroke-linecap:round; stroke-linejoin:round;fill-rule:evenodd;"
d="M 121.8000,105.2600
120.9000,105.2600
120.9000,104.6600
121.8000,104.6600
Z" /> 
<path style="fill:#000000; fill-opacity:1.0000; 
stroke:#000000; stroke-width:0.0001; stroke-opacity:1; 
stroke-linecap:round; stroke-linejoin:round;fill-rule:evenodd;"
d="M 121.8000,106.3600
120.9000,106.3600
120.9000,105.7600
121.8000,105.7600
Z" /> 
<path style="fill:#000000; fill-opacity:1.0000; 
stroke:#000000; stroke-width:0.0001; stroke-opacity:1; 
stroke-linecap:round; stroke-linejoin:round;fill-rule:evenodd;"
d="M 133.1000,92.3600
132.2000,92.3600
132.2000,91.7600
133.1000,91.7600
Z" /> 
<path style="fill:#000000; fill-opacity:1.0000; 
stroke:#000000; stroke-width:0.0001; stroke-opacity:1; 
stroke-linecap:round; stroke-linejoin:round;fill-rule:evenodd;"
d="M 133.1000,93.4600
132.2000,93.4600
132.2000,92.8600
133.1000,92.8600
Z" /> 
<path style="fill:#000000; fill-opacity:1.0000; 
stroke:#000000; stroke-width:0.0001; stroke-opacity:1; 
stroke-linecap:round; stroke-linejoin:round;fill-rule:evenodd;"
d="M 133.1000,94.5600
132.2000,94.5600
132.2000,93.9600
133.1000,93.9600
Z" /> 
<path style="fill:#000000; fill-opacity:1.0000; 
stroke:#000000; stroke-width:0.0001; stroke-opacity:1; 
stroke-linecap:round; stroke-linejoin:round;fill-rule:evenodd;"
d="M 133.1000,95.6600
132.2000,95.6600
132.2000,95.0600
133.1000,95.0600
Z" /> 
<path style="fill:#000000; fill-opacity:1.0000; 
stroke:#000000; stroke-width:0.0001; stroke-opacity:1; 
stroke-linecap:round; stroke-linejoin:round;fill-rule:evenodd;"
d="M 133.1000,96.7600
132.2000,96.7600
132.2000,96.1600
133.1000,96.1600
Z" /> 
<path style="fill:#000000; fill-opacity:1.0000; 
stroke:#000000; stroke-width:0.0001; stroke-opacity:1; 
stroke-linecap:round; stroke-linejoin:round;fill-rule:evenodd;"
d="M 133.1000,97.8600
132.2000,97.8600
132.2000,97.2600
133.1000,97.2600
Z" /> 
<path style="fill:#000000; fill-opacity:1.0000; 
stroke:#000000; stroke-width:0.0001; stroke-opacity:1; 
stroke-linecap:round; stroke-linejoin:round;fill-rule:evenodd;"
d="M 133.1000,98.9600
132.2000,98.9600
132.2000,98.3600
133.1000,98.3600
Z" /> 
<path style="fill:#000000; fill-opacity:1.0000; 
stroke:#000000; stroke-width:0.0001; stroke-opacity:1; 
stroke-linecap:round; stroke-linejoin:round;fill-rule:evenodd;"
d="M 133.1000,101.9600
132.2000,101.9600
132.2000,101.3600
133.1000,101.3600
Z" /> 
<path style="fill:#000000; fill-opacity:1.0000; 
stroke:#000000; stroke-width:0.0001; stroke-opacity:1; 
stroke-linecap:round; stroke-linejoin:round;fill-rule:evenodd;"
d="M 133.1000,103.0600
132.2000,103.0600
132.2000,102.4600
133.1000,102.4600
Z" /> 
<path style="fill:#000000; fill-opacity:1.0000; 
stroke:#000000; stroke-width:0.0001; stroke-opacity:1; 
stroke-linecap:round; stroke-linejoin:round;fill-rule:evenodd;"
d="M 133.1000,104.1600
132.2000,104.1600
132.2000,103.5600
133.1000,103.5600
Z" /> 
<path style="fill:#000000; fill-opacity:1.0000; 
stroke:#000000; stroke-width:0.0001; stroke-opacity:1; 
stroke-linecap:round; stroke-linejoin:round;fill-rule:evenodd;"
d="M 133.1000,105.2600
132.2000,105.2600
132.2000,104.6600
133.1000,104.6600
Z" /> 
<path style="fill:#000000; fill-opacity:1.0000; 
stroke:#000000; stroke-width:0.0001; stroke-opacity:1; 
stroke-linecap:round; stroke-linejoin:round;fill-rule:evenodd;"
d="M 133.1000,106.3600
132.2000,106.3600
132.2000,105.7600
133.1000,105.7600
Z" /> 
<path style="fill:#000000; fill-opacity:1.0000; 
stroke:#000000; stroke-width:0.0001; stroke-opacity:1; 
stroke-linecap:round; stroke-linejoin:round;fill-rule:evenodd;"
d="M 134.3000,92.4600
133.1000,92.4600
133.1000,91.6600
134.3000,91.6600
Z" /> 
<path style="fill:#000000; fill-opacity:1.0000; 
stroke:#000000; stroke-width:0.0001; stroke-opacity:1; 
stroke-linecap:round; stroke-linejoin:round;fill-rule:evenodd;"
d="M 134.3000,93.5600
133.1000,93.5600
133.1000,92.7600
134.3000,92.7600
Z" /> 
<path style="fill:#000000; fill-opacity:1.0000; 
stroke:#000000; stroke-width:0.0001; stroke-opacity:1; 
stroke-linecap:round; stroke-linejoin:round;fill-rule:evenodd;"
d="M 134.3000,94.6600
133.1000,94.6600
133.1000,93.8600
134.3000,93.8600
Z" /> 
<path style="fill:#000000; fill-opacity:1.0000; 
stroke:#000000; stroke-width:0.0001; stroke-opacity:1; 
stroke-linecap:round; stroke-linejoin:round;fill-rule:evenodd;"
d="M 134.3000,95.7600
133.1000,95.7600
133.1000,94.9600
134.3000,94.9600
Z" /> 
<path style="fill:#000000; fill-opacity:1.0000; 
stroke:#000000; stroke-width:0.0001; stroke-opacity:1; 
stroke-linecap:round; stroke-linejoin:round;fill-rule:evenodd;"
d="M 134.3000,96.8600
133.1000,96.8600
133.1000,96.0600
134.3000,96.0600
Z" /> 
<path style="fill:#000000; fill-opacity:1.0000; 
stroke:#000000; stroke-width:0.0001; stroke-opacity:1; 
stroke-linecap:round; stroke-linejoin:round;fill-rule:evenodd;"
d="M 134.3000,97.9600
133.1000,97.9600
133.1000,97.1600
134.3000,97.1600
Z" /> 
<path style="fill:#000000; fill-opacity:1.0000; 
stroke:#000000; stroke-width:0.0001; stroke-opacity:1; 
stroke-linecap:round; stroke-linejoin:round;fill-rule:evenodd;"
d="M 134.3000,99.0600
133.1000,99.0600
133.1000,98.2600
134.3000,98.2600
Z" /> 
<path style="fill:#000000; fill-opacity:1.0000; 
stroke:#000000; stroke-width:0.0001; stroke-opacity:1; 
stroke-linecap:round; stroke-linejoin:round;fill-rule:evenodd;"
d="M 134.3000,102.0600
133.1000,102.0600
133.1000,101.2600
134.3000,101.2600
Z" /> 
<path style="fill:#000000; fill-opacity:1.0000; 
stroke:#000000; stroke-width:0.0001; stroke-opacity:1; 
stroke-linecap:round; stroke-linejoin:round;fill-rule:evenodd;"
d="M 134.3000,103.1600
133.1000,103.1600
133.1000,102.3600
134.3000,102.3600
Z" /> 
<path style="fill:#000000; fill-opacity:1.0000; 
stroke:#000000; stroke-width:0.0001; stroke-opacity:1; 
stroke-linecap:round; stroke-linejoin:round;fill-rule:evenodd;"
d="M 134.3000,104.2600
133.1000,104.2600
133.1000,103.4600
134.3000,103.4600
Z" /> 
<path style="fill:#000000; fill-opacity:1.0000; 
stroke:#000000; stroke-width:0.0001; stroke-opacity:1; 
stroke-linecap:round; stroke-linejoin:round;fill-rule:evenodd;"
d="M 134.3000,105.3600
133.1000,105.3600
133.1000,104.5600
134.3000,104.5600
Z" /> 
<path style="fill:#000000; fill-opacity:1.0000; 
stroke:#000000; stroke-width:0.0001; stroke-opacity:1; 
stroke-linecap:round; stroke-linejoin:round;fill-rule:evenodd;"
d="M 134.3000,106.4600
133.1000,106.4600
133.1000,105.6600
134.3000,105.6600
Z" /> 
</g>
<g style="fill:#000000; fill-opacity:1.0000; 
stroke:#000000; stroke-width:0.0100; stroke-opacity:1; 
stroke-linecap:round; stroke-linejoin:round;">
<path style="fill:#000000; fill-opacity:1.0000; 
stroke:#000000; stroke-width:0.0100; stroke-opacity:1; 
stroke-linecap:round; stroke-linejoin:round;fill-rule:evenodd;"
d="M 179.2600,134.4400
179.2600,134.7900
179.1800,134.8700
178.6000,134.8700
178.1500,135.3200
178.0300,135.3200
177.7700,135.0600
177.7700,134.9400
178.2200,134.4900
178.2200,134.4400
178.3000,134.3600
179.1800,134.3600
Z" /> 
<path style="fill:#000000; fill-opacity:1.0000; 
stroke:#000000; stroke-width:0.0100; stroke-opacity:1; 
stroke-linecap:round; stroke-linejoin:round;fill-rule:evenodd;"
d="M 180.8600,134.4400
180.8600,134.4900
181.3100,134.9400
181.3100,135.0600
181.0500,135.3200
180.9300,135.3200
180.4800,134.8700
179.9000,134.8700
179.8200,134.7900
179.8200,134.4400
179.9000,134.3600
180.7800,134.3600
Z" /> 
<path style="fill:#000000; fill-opacity:1.0000; 
stroke:#000000; stroke-width:0.0100; stroke-opacity:1; 
stroke-linecap:round; stroke-linejoin:round;fill-rule:evenodd;"
d="M 178.6000,130.7900
178.9500,130.7900
179.0400,130.8800
179.0400,131.0000
179.5400,131.4900
179.5400,131.6900
179.0400,132.1900
179.0400,132.3100
178.9500,132.4000
178.3000,132.4000
178.2200,132.3200
178.2200,131.1700
177.7100,130.6600
177.7100,130.4900
177.9200,130.2800
178.0900,130.2800
Z" /> 
<path style="fill:#000000; fill-opacity:1.0000; 
stroke:#000000; stroke-width:0.0100; stroke-opacity:1; 
stroke-linecap:round; stroke-linejoin:round;fill-rule:evenodd;"
d="M 181.3700,130.4900
181.3700,130.6600
180.8600,131.1700
180.8600,132.3200
180.7800,132.4000
180.1300,132.4000
180.0400,132.3100
180.0400,132.1900
179.5400,131.6900
179.5400,131.5000
180.0400,131.0000
180.0400,130.8900
180.1400,130.7900
180.4700,130.7900
180.9800,130.2800
181.1600,130.2800
Z" /> 
<g >
</g>
<g >
</g>
<g style="fill:#000000; fill-opacity:1.0000; 
stroke:#000000; stroke-width:0.0100; stroke-opacity:1; 
stroke-linecap:round; stroke-linejoin:round;">
</g>
<g style="fill:#000000; fill-opacity:1.0000; 
stroke:#000000; stroke-width:0.0000; stroke-opacity:1; 
stroke-linecap:round; stroke-linejoin:round;">
<path style="fill:#000000; fill-opacity:1.0000; 
stroke:#000000; stroke-width:0.0000; stroke-opacity:1; 
stroke-linecap:round; stroke-linejoin:round;fill-rule:evenodd;"
d="M 177.6125,112.9750
177.6125,112.6250
177.9875,112.6250
177.9875,112.9750
Z" /> 
<path style="fill:#000000; fill-opacity:1.0000; 
stroke:#000000; stroke-width:0.0000; stroke-opacity:1; 
stroke-linecap:round; stroke-linejoin:round;fill-rule:evenodd;"
d="M 177.6125,113.4750
177.6125,113.1250
177.9875,113.1250
177.9875,113.4750
Z" /> 
<path style="fill:#000000; fill-opacity:1.0000; 
stroke:#000000; stroke-width:0.0000; stroke-opacity:1; 
stroke-linecap:round; stroke-linejoin:round;fill-rule:evenodd;"
d="M 177.6125,113.9750
177.6125,113.6250
177.9875,113.6250
177.9875,113.9750
Z" /> 
<path style="fill:#000000; fill-opacity:1.0000; 
stroke:#000000; stroke-width:0.0000; stroke-opacity:1; 
stroke-linecap:round; stroke-linejoin:round;fill-rule:evenodd;"
d="M 177.6125,114.4750
177.6125,114.1250
177.9875,114.1250
177.9875,114.4750
Z" /> 
<path style="fill:#000000; fill-opacity:1.0000; 
stroke:#000000; stroke-width:0.0000; stroke-opacity:1; 
stroke-linecap:round; stroke-linejoin:round;fill-rule:evenodd;"
d="M 178.4875,114.5000
178.1375,114.5000
178.1375,114.1250
178.4875,114.1250
Z" /> 
<path style="fill:#000000; fill-opacity:1.0000; 
stroke:#000000; stroke-width:0.0000; stroke-opacity:1; 
stroke-linecap:round; stroke-linejoin:round;fill-rule:evenodd;"
d="M 178.9875,114.5000
178.6375,114.5000
178.6375,114.1250
178.9875,114.1250
Z" /> 
<path style="fill:#000000; fill-opacity:1.0000; 
stroke:#000000; stroke-width:0.0000; stroke-opacity:1; 
stroke-linecap:round; stroke-linejoin:round;fill-rule:evenodd;"
d="M 179.5125,114.1250
179.5125,114.4750
179.1375,114.4750
179.1375,114.1250
Z" /> 
<path style="fill:#000000; fill-opacity:1.0000; 
stroke:#000000; stroke-width:0.0000; stroke-opacity:1; 
stroke-linecap:round; stroke-linejoin:round;fill-rule:evenodd;"
d="M 179.5125,113.6250
179.5125,113.9750
179.1375,113.9750
179.1375,113.6250
Z" /> 
<path style="fill:#000000; fill-opacity:1.0000; 
stroke:#000000; stroke-width:0.0000; stroke-opacity:1; 
stroke-linecap:round; stroke-linejoin:round;fill-rule:evenodd;"
d="M 179.5125,113.1250
179.5125,113.4750
179.1375,113.4750
179.1375,113.1250
Z" /> 
<path style="fill:#000000; fill-opacity:1.0000; 
stroke:#000000; stroke-width:0.0000; stroke-opacity:1; 
stroke-linecap:round; stroke-linejoin:round;fill-rule:evenodd;"
d="M 179.5125,112.6250
179.5125,112.9750
179.1375,112.9750
179.1375,112.6250
Z" /> 
<path style="fill:#000000; fill-opacity:1.0000; 
stroke:#000000; stroke-width:0.0000; stroke-opacity:1; 
stroke-linecap:round; stroke-linejoin:round;fill-rule:evenodd;"
d="M 178.6375,112.6000
178.9875,112.6000
178.9875,112.9750
178.6375,112.9750
Z" /> 
<path style="fill:#000000; fill-opacity:1.0000; 
stroke:#000000; stroke-width:0.0000; stroke-opacity:1; 
stroke-linecap:round; stroke-linejoin:round;fill-rule:evenodd;"
d="M 178.1375,112.6000
178.4875,112.6000
178.4875,112.9750
178.1375,112.9750
Z" /> 
</g>
<g >
</g>
<g style="fill:#000000; fill-opacity:1.0000; 
stroke:#000000; stroke-width:0.0000; stroke-opacity:1; 
stroke-linecap:round; stroke-linejoin:round;">
<path style="fill:#000000; fill-opacity:1.0000; 
stroke:#000000; stroke-width:0.0000; stroke-opacity:1; 
stroke-linecap:round; stroke-linejoin:round;fill-rule:evenodd;"
d="M 135.6050,66.5050
135.6050,65.5750
136.4950,65.5750
136.4950,66.5050
Z" /> 
<path style="fill:#000000; fill-opacity:1.0000; 
stroke:#000000; stroke-width:0.0000; stroke-opacity:1; 
stroke-linecap:round; stroke-linejoin:round;fill-rule:evenodd;"
d="M 137.1450,66.5050
137.1450,65.5750
138.0350,65.5750
138.0350,66.5050
Z" /> 
</g>
<g >
</g>
<g style="fill:#000000; fill-opacity:1.0000; 
stroke:#000000; stroke-width:0.0000; stroke-opacity:1; 
stroke-linecap:round; stroke-linejoin:round;">
<path style="fill:#000000; fill-opacity:1.0000; 
stroke:#000000; stroke-width:0.0000; stroke-opacity:1; 
stroke-linecap:round; stroke-linejoin:round;fill-rule:evenodd;"
d="M 183.3800,75.9100
182.3800,75.9100
182.3800,74.8100
183.3800,74.8100
Z" /> 
<path style="fill:#000000; fill-opacity:1.0000; 
stroke:#000000; stroke-width:0.0000; stroke-opacity:1; 
stroke-linecap:round; stroke-linejoin:round;fill-rule:evenodd;"
d="M 183.3800,74.2100
182.3800,74.2100
182.3800,73.1100
183.3800,73.1100
Z" /> 
</g>
<g >
</g>
<g style="fill:#000000; fill-opacity:1.0000; 
stroke:#000000; stroke-width:0.0000; stroke-opacity:1; 
stroke-linecap:round; stroke-linejoin:round;">
<path style="fill:#000000; fill-opacity:1.0000; 
stroke:#000000; stroke-width:0.0000; stroke-opacity:1; 
stroke-linecap:round; stroke-linejoin:round;fill-rule:evenodd;"
d="M 184.5750,106.4220
184.5782,106.4059
184.5873,106.3923
184.6009,106.3832
184.6170,106.3800
186.5030,106.3800
186.5191,106.3832
186.5327,106.3923
186.5418,106.4059
186.5450,106.4220
186.5450,106.9380
186.5418,106.9541
186.5327,106.9677
186.5191,106.9768
186.5030,106.9800
184.6170,106.9800
184.6009,106.9768
184.5873,106.9677
184.5782,106.9541
184.5750,106.9380
Z" /> 
<path style="fill:#000000; fill-opacity:1.0000; 
stroke:#000000; stroke-width:0.0000; stroke-opacity:1; 
stroke-linecap:round; stroke-linejoin:round;fill-rule:evenodd;"
d="M 184.5750,107.6920
184.5782,107.6759
184.5873,107.6623
184.6009,107.6532
184.6170,107.6500
186.5030,107.6500
186.5191,107.6532
186.5327,107.6623
186.5418,107.6759
186.5450,107.6920
186.5450,108.2080
186.5418,108.2241
186.5327,108.2377
186.5191,108.2468
186.5030,108.2500
184.6170,108.2500
184.6009,108.2468
184.5873,108.2377
184.5782,108.2241
184.5750,108.2080
Z" /> 
<path style="fill:#000000; fill-opacity:1.0000; 
stroke:#000000; stroke-width:0.0000; stroke-opacity:1; 
stroke-linecap:round; stroke-linejoin:round;fill-rule:evenodd;"
d="M 184.5750,108.9620
184.5782,108.9459
184.5873,108.9323
184.6009,108.9232
184.6170,108.9200
186.5030,108.9200
186.5191,108.9232
186.5327,108.9323
186.5418,108.9459
186.5450,108.9620
186.5450,109.4780
186.5418,109.4941
186.5327,109.5077
186.5191,109.5168
186.5030,109.5200
184.6170,109.5200
184.6009,109.5168
184.5873,109.5077
184.5782,109.4941
184.5750,109.4780
Z" /> 
<path style="fill:#000000; fill-opacity:1.0000; 
stroke:#000000; stroke-width:0.0000; stroke-opacity:1; 
stroke-linecap:round; stroke-linejoin:round;fill-rule:evenodd;"
d="M 184.5750,110.2320
184.5782,110.2159
184.5873,110.2023
184.6009,110.1932
184.6170,110.1900
186.5030,110.1900
186.5191,110.1932
186.5327,110.2023
186.5418,110.2159
186.5450,110.2320
186.5450,110.7480
186.5418,110.7641
186.5327,110.7777
186.5191,110.7868
186.5030,110.7900
184.6170,110.7900
184.6009,110.7868
184.5873,110.7777
184.5782,110.7641
184.5750,110.7480
Z" /> 
<path style="fill:#000000; fill-opacity:1.0000; 
stroke:#000000; stroke-width:0.0000; stroke-opacity:1; 
stroke-linecap:round; stroke-linejoin:round;fill-rule:evenodd;"
d="M 189.5150,110.2320
189.5182,110.2159
189.5273,110.2023
189.5409,110.1932
189.5570,110.1900
191.4430,110.1900
191.4591,110.1932
191.4727,110.2023
191.4818,110.2159
191.4850,110.2320
191.4850,110.7480
191.4818,110.7641
191.4727,110.7777
191.4591,110.7868
191.4430,110.7900
189.5570,110.7900
189.5409,110.7868
189.5273,110.7777
189.5182,110.7641
189.5150,110.7480
Z" /> 
<path style="fill:#000000; fill-opacity:1.0000; 
stroke:#000000; stroke-width:0.0000; stroke-opacity:1; 
stroke-linecap:round; stroke-linejoin:round;fill-rule:evenodd;"
d="M 189.5150,108.9620
189.5182,108.9459
189.5273,108.9323
189.5409,108.9232
189.5570,108.9200
191.4430,108.9200
191.4591,108.9232
191.4727,108.9323
191.4818,108.9459
191.4850,108.9620
191.4850,109.4780
191.4818,109.4941
191.4727,109.5077
191.4591,109.5168
191.4430,109.5200
189.5570,109.5200
189.5409,109.5168
189.5273,109.5077
189.5182,109.4941
189.5150,109.4780
Z" /> 
<path style="fill:#000000; fill-opacity:1.0000; 
stroke:#000000; stroke-width:0.0000; stroke-opacity:1; 
stroke-linecap:round; stroke-linejoin:round;fill-rule:evenodd;"
d="M 189.5150,107.6920
189.5182,107.6759
189.5273,107.6623
189.5409,107.6532
189.5570,107.6500
191.4430,107.6500
191.4591,107.6532
191.4727,107.6623
191.4818,107.6759
191.4850,107.6920
191.4850,108.2080
191.4818,108.2241
191.4727,108.2377
191.4591,108.2468
191.4430,108.2500
189.5570,108.2500
189.5409,108.2468
189.5273,108.2377
189.5182,108.2241
189.5150,108.2080
Z" /> 
<path style="fill:#000000; fill-opacity:1.0000; 
stroke:#000000; stroke-width:0.0000; stroke-opacity:1; 
stroke-linecap:round; stroke-linejoin:round;fill-rule:evenodd;"
d="M 189.5150,106.4220
189.5182,106.4059
189.5273,106.3923
189.5409,106.3832
189.5570,106.3800
191.4430,106.3800
191.4591,106.3832
191.4727,106.3923
191.4818,106.4059
191.4850,106.4220
191.4850,106.9380
191.4818,106.9541
191.4727,106.9677
191.4591,106.9768
191.4430,106.9800
189.5570,106.9800
189.5409,106.9768
189.5273,106.9677
189.5182,106.9541
189.5150,106.9380
Z" /> 
</g>
<g >
</g>
<g style="fill:#000000; fill-opacity:1.0000; 
stroke:#000000; stroke-width:0.0000; stroke-opacity:1; 
stroke-linecap:round; stroke-linejoin:round;">
<path style="fill:#000000; fill-opacity:1.0000; 
stroke:#000000; stroke-width:0.0000; stroke-opacity:1; 
stroke-linecap:round; stroke-linejoin:round;fill-rule:evenodd;"
d="M 135.4850,75.6250
133.7550,75.6250
133.7550,74.6550
135.4850,74.6550
Z" /> 
<path style="fill:#000000; fill-opacity:1.0000; 
stroke:#000000; stroke-width:0.0000; stroke-opacity:1; 
stroke-linecap:round; stroke-linejoin:round;fill-rule:evenodd;"
d="M 135.4850,72.6650
133.7550,72.6650
133.7550,71.6950
135.4850,71.6950
Z" /> 
</g>
<g >
</g>
<g style="fill:#000000; fill-opacity:1.0000; 
stroke:#000000; stroke-width:0.0000; stroke-opacity:1; 
stroke-linecap:round; stroke-linejoin:round;">
<path style="fill:#000000; fill-opacity:1.0000; 
stroke:#000000; stroke-width:0.0000; stroke-opacity:1; 
stroke-linecap:round; stroke-linejoin:round;fill-rule:evenodd;"
d="M 168.3900,75.2600
166.8900,75.2600
166.8900,73.9600
168.3900,73.9600
Z" /> 
<path style="fill:#000000; fill-opacity:1.0000; 
stroke:#000000; stroke-width:0.0000; stroke-opacity:1; 
stroke-linecap:round; stroke-linejoin:round;fill-rule:evenodd;"
d="M 168.3900,73.3600
166.8900,73.3600
166.8900,72.0600
168.3900,72.0600
Z" /> 
</g>
<g >
</g>
<g style="fill:#000000; fill-opacity:1.0000; 
stroke:#000000; stroke-width:0.0000; stroke-opacity:1; 
stroke-linecap:round; stroke-linejoin:round;">
<path style="fill:#000000; fill-opacity:1.0000; 
stroke:#000000; stroke-width:0.0000; stroke-opacity:1; 
stroke-linecap:round; stroke-linejoin:round;fill-rule:evenodd;"
d="M 157.2764,75.2600
155.7764,75.2600
155.7764,73.9600
157.2764,73.9600
Z" /> 
<path style="fill:#000000; fill-opacity:1.0000; 
stroke:#000000; stroke-width:0.0000; stroke-opacity:1; 
stroke-linecap:round; stroke-linejoin:round;fill-rule:evenodd;"
d="M 157.2764,73.3600
155.7764,73.3600
155.7764,72.0600
157.2764,72.0600
Z" /> 
</g>
<g >
</g>
<g style="fill:#000000; fill-opacity:1.0000; 
stroke:#000000; stroke-width:0.0000; stroke-opacity:1; 
stroke-linecap:round; stroke-linejoin:round;">
<path style="fill:#000000; fill-opacity:1.0000; 
stroke:#000000; stroke-width:0.0000; stroke-opacity:1; 
stroke-linecap:round; stroke-linejoin:round;fill-rule:evenodd;"
d="M 188.4600,75.9100
187.4600,75.9100
187.4600,74.8100
188.4600,74.8100
Z" /> 
<path style="fill:#000000; fill-opacity:1.0000; 
stroke:#000000; stroke-width:0.0000; stroke-opacity:1; 
stroke-linecap:round; stroke-linejoin:round;fill-rule:evenodd;"
d="M 188.4600,74.2100
187.4600,74.2100
187.4600,73.1100
188.4600,73.1100
Z" /> 
</g>
<g >
</g>
<g style="fill:#000000; fill-opacity:1.0000; 
stroke:#000000; stroke-width:0.0000; stroke-opacity:1; 
stroke-linecap:round; stroke-linejoin:round;">
<path style="fill:#000000; fill-opacity:1.0000; 
stroke:#000000; stroke-width:0.0000; stroke-opacity:1; 
stroke-linecap:round; stroke-linejoin:round;fill-rule:evenodd;"
d="M 120.7400,75.7660
118.0200,75.7660
118.0200,74.2360
120.7400,74.2360
Z" /> 
<path style="fill:#000000; fill-opacity:1.0000; 
stroke:#000000; stroke-width:0.0000; stroke-opacity:1; 
stroke-linecap:round; stroke-linejoin:round;fill-rule:evenodd;"
d="M 120.7400,73.0840
118.0200,73.0840
118.0200,71.5540
120.7400,71.5540
Z" /> 
</g>
<g >
</g>
<g style="fill:#000000; fill-opacity:1.0000; 
stroke:#000000; stroke-width:0.0000; stroke-opacity:1; 
stroke-linecap:round; stroke-linejoin:round;">
<path style="fill:#000000; fill-opacity:1.0000; 
stroke:#000000; stroke-width:0.0000; stroke-opacity:1; 
stroke-linecap:round; stroke-linejoin:round;fill-rule:evenodd;"
d="M 117.8250,66.6850
117.8250,65.7550
118.7150,65.7550
118.7150,66.6850
Z" /> 
<path style="fill:#000000; fill-opacity:1.0000; 
stroke:#000000; stroke-width:0.0000; stroke-opacity:1; 
stroke-linecap:round; stroke-linejoin:round;fill-rule:evenodd;"
d="M 119.3650,66.6850
119.3650,65.7550
120.2550,65.7550
120.2550,66.6850
Z" /> 
</g>
<g >
</g>
<g style="fill:#000000; fill-opacity:1.0000; 
stroke:#000000; stroke-width:0.0000; stroke-opacity:1; 
stroke-linecap:round; stroke-linejoin:round;">
<path style="fill:#000000; fill-opacity:1.0000; 
stroke:#000000; stroke-width:0.0000; stroke-opacity:1; 
stroke-linecap:round; stroke-linejoin:round;fill-rule:evenodd;"
d="M 141.8450,82.4540
141.2450,82.4540
141.2450,81.9140
141.8450,81.9140
Z" /> 
<path style="fill:#000000; fill-opacity:1.0000; 
stroke:#000000; stroke-width:0.0000; stroke-opacity:1; 
stroke-linecap:round; stroke-linejoin:round;fill-rule:evenodd;"
d="M 141.8450,81.5900
141.2450,81.5900
141.2450,81.0500
141.8450,81.0500
Z" /> 
</g>
<g >
</g>
<g >
</g>
<g style="fill:#000000; fill-opacity:1.0000; 
stroke:#000000; stroke-width:0.0000; stroke-opacity:1; 
stroke-linecap:round; stroke-linejoin:round;">
<path style="fill:#000000; fill-opacity:1.0000; 
stroke:#000000; stroke-width:0.0000; stroke-opacity:1; 
stroke-linecap:round; stroke-linejoin:round;fill-rule:evenodd;"
d="M 142.4200,97.9704
142.4185,97.9779
142.4143,97.9843
142.4079,97.9885
142.4004,97.9900
140.8796,97.9900
140.8721,97.9885
140.8657,97.9843
140.8615,97.9779
140.8600,97.9704
140.8600,97.7296
140.8615,97.7221
140.8657,97.7157
140.8721,97.7115
140.8796,97.7100
142.4004,97.7100
142.4079,97.7115
142.4143,97.7157
142.4185,97.7221
142.4200,97.7296
Z" /> 
<path style="fill:#000000; fill-opacity:1.0000; 
stroke:#000000; stroke-width:0.0000; stroke-opacity:1; 
stroke-linecap:round; stroke-linejoin:round;fill-rule:evenodd;"
d="M 142.4200,98.4704
142.4185,98.4779
142.4143,98.4843
142.4079,98.4885
142.4004,98.4900
140.8796,98.4900
140.8721,98.4885
140.8657,98.4843
140.8615,98.4779
140.8600,98.4704
140.8600,98.2296
140.8615,98.2221
140.8657,98.2157
140.8721,98.2115
140.8796,98.2100
142.4004,98.2100
142.4079,98.2115
142.4143,98.2157
142.4185,98.2221
142.4200,98.2296
Z" /> 
<path style="fill:#000000; fill-opacity:1.0000; 
stroke:#000000; stroke-width:0.0000; stroke-opacity:1; 
stroke-linecap:round; stroke-linejoin:round;fill-rule:evenodd;"
d="M 142.4200,98.9704
142.4185,98.9779
142.4143,98.9843
142.4079,98.9885
142.4004,98.9900
140.8796,98.9900
140.8721,98.9885
140.8657,98.9843
140.8615,98.9779
140.8600,98.9704
140.8600,98.7296
140.8615,98.7221
140.8657,98.7157
140.8721,98.7115
140.8796,98.7100
142.4004,98.7100
142.4079,98.7115
142.4143,98.7157
142.4185,98.7221
142.4200,98.7296
Z" /> 
<path style="fill:#000000; fill-opacity:1.0000; 
stroke:#000000; stroke-width:0.0000; stroke-opacity:1; 
stroke-linecap:round; stroke-linejoin:round;fill-rule:evenodd;"
d="M 142.4200,99.4704
142.4185,99.4779
142.4143,99.4843
142.4079,99.4885
142.4004,99.4900
140.8796,99.4900
140.8721,99.4885
140.8657,99.4843
140.8615,99.4779
140.8600,99.4704
140.8600,99.2296
140.8615,99.2221
140.8657,99.2157
140.8721,99.2115
140.8796,99.2100
142.4004,99.2100
142.4079,99.2115
142.4143,99.2157
142.4185,99.2221
142.4200,99.2296
Z" /> 
<path style="fill:#000000; fill-opacity:1.0000; 
stroke:#000000; stroke-width:0.0000; stroke-opacity:1; 
stroke-linecap:round; stroke-linejoin:round;fill-rule:evenodd;"
d="M 142.4200,99.9704
142.4185,99.9779
142.4143,99.9843
142.4079,99.9885
142.4004,99.9900
140.8796,99.9900
140.8721,99.9885
140.8657,99.9843
140.8615,99.9779
140.8600,99.9704
140.8600,99.7296
140.8615,99.7221
140.8657,99.7157
140.8721,99.7115
140.8796,99.7100
142.4004,99.7100
142.4079,99.7115
142.4143,99.7157
142.4185,99.7221
142.4200,99.7296
Z" /> 
<path style="fill:#000000; fill-opacity:1.0000; 
stroke:#000000; stroke-width:0.0000; stroke-opacity:1; 
stroke-linecap:round; stroke-linejoin:round;fill-rule:evenodd;"
d="M 142.4200,100.4704
142.4185,100.4779
142.4143,100.4843
142.4079,100.4885
142.4004,100.4900
140.8796,100.4900
140.8721,100.4885
140.8657,100.4843
140.8615,100.4779
140.8600,100.4704
140.8600,100.2296
140.8615,100.2221
140.8657,100.2157
140.8721,100.2115
140.8796,100.2100
142.4004,100.2100
142.4079,100.2115
142.4143,100.2157
142.4185,100.2221
142.4200,100.2296
Z" /> 
<path style="fill:#000000; fill-opacity:1.0000; 
stroke:#000000; stroke-width:0.0000; stroke-opacity:1; 
stroke-linecap:round; stroke-linejoin:round;fill-rule:evenodd;"
d="M 142.4200,100.9704
142.4185,100.9779
142.4143,100.9843
142.4079,100.9885
142.4004,100.9900
140.8796,100.9900
140.8721,100.9885
140.8657,100.9843
140.8615,100.9779
140.8600,100.9704
140.8600,100.7296
140.8615,100.7221
140.8657,100.7157
140.8721,100.7115
140.8796,100.7100
142.4004,100.7100
142.4079,100.7115
142.4143,100.7157
142.4185,100.7221
142.4200,100.7296
Z" /> 
<path style="fill:#000000; fill-opacity:1.0000; 
stroke:#000000; stroke-width:0.0000; stroke-opacity:1; 
stroke-linecap:round; stroke-linejoin:round;fill-rule:evenodd;"
d="M 142.4200,101.4704
142.4185,101.4779
142.4143,101.4843
142.4079,101.4885
142.4004,101.4900
140.8796,101.4900
140.8721,101.4885
140.8657,101.4843
140.8615,101.4779
140.8600,101.4704
140.8600,101.2296
140.8615,101.2221
140.8657,101.2157
140.8721,101.2115
140.8796,101.2100
142.4004,101.2100
142.4079,101.2115
142.4143,101.2157
142.4185,101.2221
142.4200,101.2296
Z" /> 
<path style="fill:#000000; fill-opacity:1.0000; 
stroke:#000000; stroke-width:0.0000; stroke-opacity:1; 
stroke-linecap:round; stroke-linejoin:round;fill-rule:evenodd;"
d="M 142.4200,101.9704
142.4185,101.9779
142.4143,101.9843
142.4079,101.9885
142.4004,101.9900
140.8796,101.9900
140.8721,101.9885
140.8657,101.9843
140.8615,101.9779
140.8600,101.9704
140.8600,101.7296
140.8615,101.7221
140.8657,101.7157
140.8721,101.7115
140.8796,101.7100
142.4004,101.7100
142.4079,101.7115
142.4143,101.7157
142.4185,101.7221
142.4200,101.7296
Z" /> 
<path style="fill:#000000; fill-opacity:1.0000; 
stroke:#000000; stroke-width:0.0000; stroke-opacity:1; 
stroke-linecap:round; stroke-linejoin:round;fill-rule:evenodd;"
d="M 142.4200,102.4704
142.4185,102.4779
142.4143,102.4843
142.4079,102.4885
142.4004,102.4900
140.8796,102.4900
140.8721,102.4885
140.8657,102.4843
140.8615,102.4779
140.8600,102.4704
140.8600,102.2296
140.8615,102.2221
140.8657,102.2157
140.8721,102.2115
140.8796,102.2100
142.4004,102.2100
142.4079,102.2115
142.4143,102.2157
142.4185,102.2221
142.4200,102.2296
Z" /> 
<path style="fill:#000000; fill-opacity:1.0000; 
stroke:#000000; stroke-width:0.0000; stroke-opacity:1; 
stroke-linecap:round; stroke-linejoin:round;fill-rule:evenodd;"
d="M 142.4200,102.9704
142.4185,102.9779
142.4143,102.9843
142.4079,102.9885
142.4004,102.9900
140.8796,102.9900
140.8721,102.9885
140.8657,102.9843
140.8615,102.9779
140.8600,102.9704
140.8600,102.7296
140.8615,102.7221
140.8657,102.7157
140.8721,102.7115
140.8796,102.7100
142.4004,102.7100
142.4079,102.7115
142.4143,102.7157
142.4185,102.7221
142.4200,102.7296
Z" /> 
<path style="fill:#000000; fill-opacity:1.0000; 
stroke:#000000; stroke-width:0.0000; stroke-opacity:1; 
stroke-linecap:round; stroke-linejoin:round;fill-rule:evenodd;"
d="M 142.4200,103.4704
142.4185,103.4779
142.4143,103.4843
142.4079,103.4885
142.4004,103.4900
140.8796,103.4900
140.8721,103.4885
140.8657,103.4843
140.8615,103.4779
140.8600,103.4704
140.8600,103.2296
140.8615,103.2221
140.8657,103.2157
140.8721,103.2115
140.8796,103.2100
142.4004,103.2100
142.4079,103.2115
142.4143,103.2157
142.4185,103.2221
142.4200,103.2296
Z" /> 
<path style="fill:#000000; fill-opacity:1.0000; 
stroke:#000000; stroke-width:0.0000; stroke-opacity:1; 
stroke-linecap:round; stroke-linejoin:round;fill-rule:evenodd;"
d="M 142.4200,103.9704
142.4185,103.9779
142.4143,103.9843
142.4079,103.9885
142.4004,103.9900
140.8796,103.9900
140.8721,103.9885
140.8657,103.9843
140.8615,103.9779
140.8600,103.9704
140.8600,103.7296
140.8615,103.7221
140.8657,103.7157
140.8721,103.7115
140.8796,103.7100
142.4004,103.7100
142.4079,103.7115
142.4143,103.7157
142.4185,103.7221
142.4200,103.7296
Z" /> 
<path style="fill:#000000; fill-opacity:1.0000; 
stroke:#000000; stroke-width:0.0000; stroke-opacity:1; 
stroke-linecap:round; stroke-linejoin:round;fill-rule:evenodd;"
d="M 142.4200,104.4704
142.4185,104.4779
142.4143,104.4843
142.4079,104.4885
142.4004,104.4900
140.8796,104.4900
140.8721,104.4885
140.8657,104.4843
140.8615,104.4779
140.8600,104.4704
140.8600,104.2296
140.8615,104.2221
140.8657,104.2157
140.8721,104.2115
140.8796,104.2100
142.4004,104.2100
142.4079,104.2115
142.4143,104.2157
142.4185,104.2221
142.4200,104.2296
Z" /> 
<path style="fill:#000000; fill-opacity:1.0000; 
stroke:#000000; stroke-width:0.0000; stroke-opacity:1; 
stroke-linecap:round; stroke-linejoin:round;fill-rule:evenodd;"
d="M 142.4200,104.9704
142.4185,104.9779
142.4143,104.9843
142.4079,104.9885
142.4004,104.9900
140.8796,104.9900
140.8721,104.9885
140.8657,104.9843
140.8615,104.9779
140.8600,104.9704
140.8600,104.7296
140.8615,104.7221
140.8657,104.7157
140.8721,104.7115
140.8796,104.7100
142.4004,104.7100
142.4079,104.7115
142.4143,104.7157
142.4185,104.7221
142.4200,104.7296
Z" /> 
<path style="fill:#000000; fill-opacity:1.0000; 
stroke:#000000; stroke-width:0.0000; stroke-opacity:1; 
stroke-linecap:round; stroke-linejoin:round;fill-rule:evenodd;"
d="M 142.4200,105.4704
142.4185,105.4779
142.4143,105.4843
142.4079,105.4885
142.4004,105.4900
140.8796,105.4900
140.8721,105.4885
140.8657,105.4843
140.8615,105.4779
140.8600,105.4704
140.8600,105.2296
140.8615,105.2221
140.8657,105.2157
140.8721,105.2115
140.8796,105.2100
142.4004,105.2100
142.4079,105.2115
142.4143,105.2157
142.4185,105.2221
142.4200,105.2296
Z" /> 
<path style="fill:#000000; fill-opacity:1.0000; 
stroke:#000000; stroke-width:0.0000; stroke-opacity:1; 
stroke-linecap:round; stroke-linejoin:round;fill-rule:evenodd;"
d="M 143.6904,106.5000
143.6979,106.5015
143.7043,106.5057
143.7085,106.5121
143.7100,106.5196
143.7100,108.0404
143.7085,108.0479
143.7043,108.0543
143.6979,108.0585
143.6904,108.0600
143.4496,108.0600
143.4421,108.0585
143.4357,108.0543
143.4315,108.0479
143.4300,108.0404
143.4300,106.5196
143.4315,106.5121
143.4357,106.5057
143.4421,106.5015
143.4496,106.5000
Z" /> 
<path style="fill:#000000; fill-opacity:1.0000; 
stroke:#000000; stroke-width:0.0000; stroke-opacity:1; 
stroke-linecap:round; stroke-linejoin:round;fill-rule:evenodd;"
d="M 144.1904,106.5000
144.1979,106.5015
144.2043,106.5057
144.2085,106.5121
144.2100,106.5196
144.2100,108.0404
144.2085,108.0479
144.2043,108.0543
144.1979,108.0585
144.1904,108.0600
143.9496,108.0600
143.9421,108.0585
143.9357,108.0543
143.9315,108.0479
143.9300,108.0404
143.9300,106.5196
143.9315,106.5121
143.9357,106.5057
143.9421,106.5015
143.9496,106.5000
Z" /> 
<path style="fill:#000000; fill-opacity:1.0000; 
stroke:#000000; stroke-width:0.0000; stroke-opacity:1; 
stroke-linecap:round; stroke-linejoin:round;fill-rule:evenodd;"
d="M 144.6904,106.5000
144.6979,106.5015
144.7043,106.5057
144.7085,106.5121
144.7100,106.5196
144.7100,108.0404
144.7085,108.0479
144.7043,108.0543
144.6979,108.0585
144.6904,108.0600
144.4496,108.0600
144.4421,108.0585
144.4357,108.0543
144.4315,108.0479
144.4300,108.0404
144.4300,106.5196
144.4315,106.5121
144.4357,106.5057
144.4421,106.5015
144.4496,106.5000
Z" /> 
<path style="fill:#000000; fill-opacity:1.0000; 
stroke:#000000; stroke-width:0.0000; stroke-opacity:1; 
stroke-linecap:round; stroke-linejoin:round;fill-rule:evenodd;"
d="M 145.1904,106.5000
145.1979,106.5015
145.2043,106.5057
145.2085,106.5121
145.2100,106.5196
145.2100,108.0404
145.2085,108.0479
145.2043,108.0543
145.1979,108.0585
145.1904,108.0600
144.9496,108.0600
144.9421,108.0585
144.9357,108.0543
144.9315,108.0479
144.9300,108.0404
144.9300,106.5196
144.9315,106.5121
144.9357,106.5057
144.9421,106.5015
144.9496,106.5000
Z" /> 
<path style="fill:#000000; fill-opacity:1.0000; 
stroke:#000000; stroke-width:0.0000; stroke-opacity:1; 
stroke-linecap:round; stroke-linejoin:round;fill-rule:evenodd;"
d="M 145.6904,106.5000
145.6979,106.5015
145.7043,106.5057
145.7085,106.5121
145.7100,106.5196
145.7100,108.0404
145.7085,108.0479
145.7043,108.0543
145.6979,108.0585
145.6904,108.0600
145.4496,108.0600
145.4421,108.0585
145.4357,108.0543
145.4315,108.0479
145.4300,108.0404
145.4300,106.5196
145.4315,106.5121
145.4357,106.5057
145.4421,106.5015
145.4496,106.5000
Z" /> 
<path style="fill:#000000; fill-opacity:1.0000; 
stroke:#000000; stroke-width:0.0000; stroke-opacity:1; 
stroke-linecap:round; stroke-linejoin:round;fill-rule:evenodd;"
d="M 146.1904,106.5000
146.1979,106.5015
146.2043,106.5057
146.2085,106.5121
146.2100,106.5196
146.2100,108.0404
146.2085,108.0479
146.2043,108.0543
146.1979,108.0585
146.1904,108.0600
145.9496,108.0600
145.9421,108.0585
145.9357,108.0543
145.9315,108.0479
145.9300,108.0404
145.9300,106.5196
145.9315,106.5121
145.9357,106.5057
145.9421,106.5015
145.9496,106.5000
Z" /> 
<path style="fill:#000000; fill-opacity:1.0000; 
stroke:#000000; stroke-width:0.0000; stroke-opacity:1; 
stroke-linecap:round; stroke-linejoin:round;fill-rule:evenodd;"
d="M 146.6904,106.5000
146.6979,106.5015
146.7043,106.5057
146.7085,106.5121
146.7100,106.5196
146.7100,108.0404
146.7085,108.0479
146.7043,108.0543
146.6979,108.0585
146.6904,108.0600
146.4496,108.0600
146.4421,108.0585
146.4357,108.0543
146.4315,108.0479
146.4300,108.0404
146.4300,106.5196
146.4315,106.5121
146.4357,106.5057
146.4421,106.5015
146.4496,106.5000
Z" /> 
<path style="fill:#000000; fill-opacity:1.0000; 
stroke:#000000; stroke-width:0.0000; stroke-opacity:1; 
stroke-linecap:round; stroke-linejoin:round;fill-rule:evenodd;"
d="M 147.1904,106.5000
147.1979,106.5015
147.2043,106.5057
147.2085,106.5121
147.2100,106.5196
147.2100,108.0404
147.2085,108.0479
147.2043,108.0543
147.1979,108.0585
147.1904,108.0600
146.9496,108.0600
146.9421,108.0585
146.9357,108.0543
146.9315,108.0479
146.9300,108.0404
146.9300,106.5196
146.9315,106.5121
146.9357,106.5057
146.9421,106.5015
146.9496,106.5000
Z" /> 
<path style="fill:#000000; fill-opacity:1.0000; 
stroke:#000000; stroke-width:0.0000; stroke-opacity:1; 
stroke-linecap:round; stroke-linejoin:round;fill-rule:evenodd;"
d="M 147.6904,106.5000
147.6979,106.5015
147.7043,106.5057
147.7085,106.5121
147.7100,106.5196
147.7100,108.0404
147.7085,108.0479
147.7043,108.0543
147.6979,108.0585
147.6904,108.0600
147.4496,108.0600
147.4421,108.0585
147.4357,108.0543
147.4315,108.0479
147.4300,108.0404
147.4300,106.5196
147.4315,106.5121
147.4357,106.5057
147.4421,106.5015
147.4496,106.5000
Z" /> 
<path style="fill:#000000; fill-opacity:1.0000; 
stroke:#000000; stroke-width:0.0000; stroke-opacity:1; 
stroke-linecap:round; stroke-linejoin:round;fill-rule:evenodd;"
d="M 148.1904,106.5000
148.1979,106.5015
148.2043,106.5057
148.2085,106.5121
148.2100,106.5196
148.2100,108.0404
148.2085,108.0479
148.2043,108.0543
148.1979,108.0585
148.1904,108.0600
147.9496,108.0600
147.9421,108.0585
147.9357,108.0543
147.9315,108.0479
147.9300,108.0404
147.9300,106.5196
147.9315,106.5121
147.9357,106.5057
147.9421,106.5015
147.9496,106.5000
Z" /> 
<path style="fill:#000000; fill-opacity:1.0000; 
stroke:#000000; stroke-width:0.0000; stroke-opacity:1; 
stroke-linecap:round; stroke-linejoin:round;fill-rule:evenodd;"
d="M 148.6904,106.5000
148.6979,106.5015
148.7043,106.5057
148.7085,106.5121
148.7100,106.5196
148.7100,108.0404
148.7085,108.0479
148.7043,108.0543
148.6979,108.0585
148.6904,108.0600
148.4496,108.0600
148.4421,108.0585
148.4357,108.0543
148.4315,108.0479
148.4300,108.0404
148.4300,106.5196
148.4315,106.5121
148.4357,106.5057
148.4421,106.5015
148.4496,106.5000
Z" /> 
<path style="fill:#000000; fill-opacity:1.0000; 
stroke:#000000; stroke-width:0.0000; stroke-opacity:1; 
stroke-linecap:round; stroke-linejoin:round;fill-rule:evenodd;"
d="M 149.1904,106.5000
149.1979,106.5015
149.2043,106.5057
149.2085,106.5121
149.2100,106.5196
149.2100,108.0404
149.2085,108.0479
149.2043,108.0543
149.1979,108.0585
149.1904,108.0600
148.9496,108.0600
148.9421,108.0585
148.9357,108.0543
148.9315,108.0479
148.9300,108.0404
148.9300,106.5196
148.9315,106.5121
148.9357,106.5057
148.9421,106.5015
148.9496,106.5000
Z" /> 
<path style="fill:#000000; fill-opacity:1.0000; 
stroke:#000000; stroke-width:0.0000; stroke-opacity:1; 
stroke-linecap:round; stroke-linejoin:round;fill-rule:evenodd;"
d="M 149.6904,106.5000
149.6979,106.5015
149.7043,106.5057
149.7085,106.5121
149.7100,106.5196
149.7100,108.0404
149.7085,108.0479
149.7043,108.0543
149.6979,108.0585
149.6904,108.0600
149.4496,108.0600
149.4421,108.0585
149.4357,108.0543
149.4315,108.0479
149.4300,108.0404
149.4300,106.5196
149.4315,106.5121
149.4357,106.5057
149.4421,106.5015
149.4496,106.5000
Z" /> 
<path style="fill:#000000; fill-opacity:1.0000; 
stroke:#000000; stroke-width:0.0000; stroke-opacity:1; 
stroke-linecap:round; stroke-linejoin:round;fill-rule:evenodd;"
d="M 150.1904,106.5000
150.1979,106.5015
150.2043,106.5057
150.2085,106.5121
150.2100,106.5196
150.2100,108.0404
150.2085,108.0479
150.2043,108.0543
150.1979,108.0585
150.1904,108.0600
149.9496,108.0600
149.9421,108.0585
149.9357,108.0543
149.9315,108.0479
149.9300,108.0404
149.9300,106.5196
149.9315,106.5121
149.9357,106.5057
149.9421,106.5015
149.9496,106.5000
Z" /> 
<path style="fill:#000000; fill-opacity:1.0000; 
stroke:#000000; stroke-width:0.0000; stroke-opacity:1; 
stroke-linecap:round; stroke-linejoin:round;fill-rule:evenodd;"
d="M 150.6904,106.5000
150.6979,106.5015
150.7043,106.5057
150.7085,106.5121
150.7100,106.5196
150.7100,108.0404
150.7085,108.0479
150.7043,108.0543
150.6979,108.0585
150.6904,108.0600
150.4496,108.0600
150.4421,108.0585
150.4357,108.0543
150.4315,108.0479
150.4300,108.0404
150.4300,106.5196
150.4315,106.5121
150.4357,106.5057
150.4421,106.5015
150.4496,106.5000
Z" /> 
<path style="fill:#000000; fill-opacity:1.0000; 
stroke:#000000; stroke-width:0.0000; stroke-opacity:1; 
stroke-linecap:round; stroke-linejoin:round;fill-rule:evenodd;"
d="M 151.1904,106.5000
151.1979,106.5015
151.2043,106.5057
151.2085,106.5121
151.2100,106.5196
151.2100,108.0404
151.2085,108.0479
151.2043,108.0543
151.1979,108.0585
151.1904,108.0600
150.9496,108.0600
150.9421,108.0585
150.9357,108.0543
150.9315,108.0479
150.9300,108.0404
150.9300,106.5196
150.9315,106.5121
150.9357,106.5057
150.9421,106.5015
150.9496,106.5000
Z" /> 
<path style="fill:#000000; fill-opacity:1.0000; 
stroke:#000000; stroke-width:0.0000; stroke-opacity:1; 
stroke-linecap:round; stroke-linejoin:round;fill-rule:evenodd;"
d="M 152.2200,105.2296
152.2215,105.2221
152.2257,105.2157
152.2321,105.2115
152.2396,105.2100
153.7604,105.2100
153.7679,105.2115
153.7743,105.2157
153.7785,105.2221
153.7800,105.2296
153.7800,105.4704
153.7785,105.4779
153.7743,105.4843
153.7679,105.4885
153.7604,105.4900
152.2396,105.4900
152.2321,105.4885
152.2257,105.4843
152.2215,105.4779
152.2200,105.4704
Z" /> 
<path style="fill:#000000; fill-opacity:1.0000; 
stroke:#000000; stroke-width:0.0000; stroke-opacity:1; 
stroke-linecap:round; stroke-linejoin:round;fill-rule:evenodd;"
d="M 152.2200,104.7296
152.2215,104.7221
152.2257,104.7157
152.2321,104.7115
152.2396,104.7100
153.7604,104.7100
153.7679,104.7115
153.7743,104.7157
153.7785,104.7221
153.7800,104.7296
153.7800,104.9704
153.7785,104.9779
153.7743,104.9843
153.7679,104.9885
153.7604,104.9900
152.2396,104.9900
152.2321,104.9885
152.2257,104.9843
152.2215,104.9779
152.2200,104.9704
Z" /> 
<path style="fill:#000000; fill-opacity:1.0000; 
stroke:#000000; stroke-width:0.0000; stroke-opacity:1; 
stroke-linecap:round; stroke-linejoin:round;fill-rule:evenodd;"
d="M 152.2200,104.2296
152.2215,104.2221
152.2257,104.2157
152.2321,104.2115
152.2396,104.2100
153.7604,104.2100
153.7679,104.2115
153.7743,104.2157
153.7785,104.2221
153.7800,104.2296
153.7800,104.4704
153.7785,104.4779
153.7743,104.4843
153.7679,104.4885
153.7604,104.4900
152.2396,104.4900
152.2321,104.4885
152.2257,104.4843
152.2215,104.4779
152.2200,104.4704
Z" /> 
<path style="fill:#000000; fill-opacity:1.0000; 
stroke:#000000; stroke-width:0.0000; stroke-opacity:1; 
stroke-linecap:round; stroke-linejoin:round;fill-rule:evenodd;"
d="M 152.2200,103.7296
152.2215,103.7221
152.2257,103.7157
152.2321,103.7115
152.2396,103.7100
153.7604,103.7100
153.7679,103.7115
153.7743,103.7157
153.7785,103.7221
153.7800,103.7296
153.7800,103.9704
153.7785,103.9779
153.7743,103.9843
153.7679,103.9885
153.7604,103.9900
152.2396,103.9900
152.2321,103.9885
152.2257,103.9843
152.2215,103.9779
152.2200,103.9704
Z" /> 
<path style="fill:#000000; fill-opacity:1.0000; 
stroke:#000000; stroke-width:0.0000; stroke-opacity:1; 
stroke-linecap:round; stroke-linejoin:round;fill-rule:evenodd;"
d="M 152.2200,103.2296
152.2215,103.2221
152.2257,103.2157
152.2321,103.2115
152.2396,103.2100
153.7604,103.2100
153.7679,103.2115
153.7743,103.2157
153.7785,103.2221
153.7800,103.2296
153.7800,103.4704
153.7785,103.4779
153.7743,103.4843
153.7679,103.4885
153.7604,103.4900
152.2396,103.4900
152.2321,103.4885
152.2257,103.4843
152.2215,103.4779
152.2200,103.4704
Z" /> 
<path style="fill:#000000; fill-opacity:1.0000; 
stroke:#000000; stroke-width:0.0000; stroke-opacity:1; 
stroke-linecap:round; stroke-linejoin:round;fill-rule:evenodd;"
d="M 152.2200,102.7296
152.2215,102.7221
152.2257,102.7157
152.2321,102.7115
152.2396,102.7100
153.7604,102.7100
153.7679,102.7115
153.7743,102.7157
153.7785,102.7221
153.7800,102.7296
153.7800,102.9704
153.7785,102.9779
153.7743,102.9843
153.7679,102.9885
153.7604,102.9900
152.2396,102.9900
152.2321,102.9885
152.2257,102.9843
152.2215,102.9779
152.2200,102.9704
Z" /> 
<path style="fill:#000000; fill-opacity:1.0000; 
stroke:#000000; stroke-width:0.0000; stroke-opacity:1; 
stroke-linecap:round; stroke-linejoin:round;fill-rule:evenodd;"
d="M 152.2200,102.2296
152.2215,102.2221
152.2257,102.2157
152.2321,102.2115
152.2396,102.2100
153.7604,102.2100
153.7679,102.2115
153.7743,102.2157
153.7785,102.2221
153.7800,102.2296
153.7800,102.4704
153.7785,102.4779
153.7743,102.4843
153.7679,102.4885
153.7604,102.4900
152.2396,102.4900
152.2321,102.4885
152.2257,102.4843
152.2215,102.4779
152.2200,102.4704
Z" /> 
<path style="fill:#000000; fill-opacity:1.0000; 
stroke:#000000; stroke-width:0.0000; stroke-opacity:1; 
stroke-linecap:round; stroke-linejoin:round;fill-rule:evenodd;"
d="M 152.2200,101.7296
152.2215,101.7221
152.2257,101.7157
152.2321,101.7115
152.2396,101.7100
153.7604,101.7100
153.7679,101.7115
153.7743,101.7157
153.7785,101.7221
153.7800,101.7296
153.7800,101.9704
153.7785,101.9779
153.7743,101.9843
153.7679,101.9885
153.7604,101.9900
152.2396,101.9900
152.2321,101.9885
152.2257,101.9843
152.2215,101.9779
152.2200,101.9704
Z" /> 
<path style="fill:#000000; fill-opacity:1.0000; 
stroke:#000000; stroke-width:0.0000; stroke-opacity:1; 
stroke-linecap:round; stroke-linejoin:round;fill-rule:evenodd;"
d="M 152.2200,101.2296
152.2215,101.2221
152.2257,101.2157
152.2321,101.2115
152.2396,101.2100
153.7604,101.2100
153.7679,101.2115
153.7743,101.2157
153.7785,101.2221
153.7800,101.2296
153.7800,101.4704
153.7785,101.4779
153.7743,101.4843
153.7679,101.4885
153.7604,101.4900
152.2396,101.4900
152.2321,101.4885
152.2257,101.4843
152.2215,101.4779
152.2200,101.4704
Z" /> 
<path style="fill:#000000; fill-opacity:1.0000; 
stroke:#000000; stroke-width:0.0000; stroke-opacity:1; 
stroke-linecap:round; stroke-linejoin:round;fill-rule:evenodd;"
d="M 152.2200,100.7296
152.2215,100.7221
152.2257,100.7157
152.2321,100.7115
152.2396,100.7100
153.7604,100.7100
153.7679,100.7115
153.7743,100.7157
153.7785,100.7221
153.7800,100.7296
153.7800,100.9704
153.7785,100.9779
153.7743,100.9843
153.7679,100.9885
153.7604,100.9900
152.2396,100.9900
152.2321,100.9885
152.2257,100.9843
152.2215,100.9779
152.2200,100.9704
Z" /> 
<path style="fill:#000000; fill-opacity:1.0000; 
stroke:#000000; stroke-width:0.0000; stroke-opacity:1; 
stroke-linecap:round; stroke-linejoin:round;fill-rule:evenodd;"
d="M 152.2200,100.2296
152.2215,100.2221
152.2257,100.2157
152.2321,100.2115
152.2396,100.2100
153.7604,100.2100
153.7679,100.2115
153.7743,100.2157
153.7785,100.2221
153.7800,100.2296
153.7800,100.4704
153.7785,100.4779
153.7743,100.4843
153.7679,100.4885
153.7604,100.4900
152.2396,100.4900
152.2321,100.4885
152.2257,100.4843
152.2215,100.4779
152.2200,100.4704
Z" /> 
<path style="fill:#000000; fill-opacity:1.0000; 
stroke:#000000; stroke-width:0.0000; stroke-opacity:1; 
stroke-linecap:round; stroke-linejoin:round;fill-rule:evenodd;"
d="M 152.2200,99.7296
152.2215,99.7221
152.2257,99.7157
152.2321,99.7115
152.2396,99.7100
153.7604,99.7100
153.7679,99.7115
153.7743,99.7157
153.7785,99.7221
153.7800,99.7296
153.7800,99.9704
153.7785,99.9779
153.7743,99.9843
153.7679,99.9885
153.7604,99.9900
152.2396,99.9900
152.2321,99.9885
152.2257,99.9843
152.2215,99.9779
152.2200,99.9704
Z" /> 
<path style="fill:#000000; fill-opacity:1.0000; 
stroke:#000000; stroke-width:0.0000; stroke-opacity:1; 
stroke-linecap:round; stroke-linejoin:round;fill-rule:evenodd;"
d="M 152.2200,99.2296
152.2215,99.2221
152.2257,99.2157
152.2321,99.2115
152.2396,99.2100
153.7604,99.2100
153.7679,99.2115
153.7743,99.2157
153.7785,99.2221
153.7800,99.2296
153.7800,99.4704
153.7785,99.4779
153.7743,99.4843
153.7679,99.4885
153.7604,99.4900
152.2396,99.4900
152.2321,99.4885
152.2257,99.4843
152.2215,99.4779
152.2200,99.4704
Z" /> 
<path style="fill:#000000; fill-opacity:1.0000; 
stroke:#000000; stroke-width:0.0000; stroke-opacity:1; 
stroke-linecap:round; stroke-linejoin:round;fill-rule:evenodd;"
d="M 152.2200,98.7296
152.2215,98.7221
152.2257,98.7157
152.2321,98.7115
152.2396,98.7100
153.7604,98.7100
153.7679,98.7115
153.7743,98.7157
153.7785,98.7221
153.7800,98.7296
153.7800,98.9704
153.7785,98.9779
153.7743,98.9843
153.7679,98.9885
153.7604,98.9900
152.2396,98.9900
152.2321,98.9885
152.2257,98.9843
152.2215,98.9779
152.2200,98.9704
Z" /> 
<path style="fill:#000000; fill-opacity:1.0000; 
stroke:#000000; stroke-width:0.0000; stroke-opacity:1; 
stroke-linecap:round; stroke-linejoin:round;fill-rule:evenodd;"
d="M 152.2200,98.2296
152.2215,98.2221
152.2257,98.2157
152.2321,98.2115
152.2396,98.2100
153.7604,98.2100
153.7679,98.2115
153.7743,98.2157
153.7785,98.2221
153.7800,98.2296
153.7800,98.4704
153.7785,98.4779
153.7743,98.4843
153.7679,98.4885
153.7604,98.4900
152.2396,98.4900
152.2321,98.4885
152.2257,98.4843
152.2215,98.4779
152.2200,98.4704
Z" /> 
<path style="fill:#000000; fill-opacity:1.0000; 
stroke:#000000; stroke-width:0.0000; stroke-opacity:1; 
stroke-linecap:round; stroke-linejoin:round;fill-rule:evenodd;"
d="M 152.2200,97.7296
152.2215,97.7221
152.2257,97.7157
152.2321,97.7115
152.2396,97.7100
153.7604,97.7100
153.7679,97.7115
153.7743,97.7157
153.7785,97.7221
153.7800,97.7296
153.7800,97.9704
153.7785,97.9779
153.7743,97.9843
153.7679,97.9885
153.7604,97.9900
152.2396,97.9900
152.2321,97.9885
152.2257,97.9843
152.2215,97.9779
152.2200,97.9704
Z" /> 
<path style="fill:#000000; fill-opacity:1.0000; 
stroke:#000000; stroke-width:0.0000; stroke-opacity:1; 
stroke-linecap:round; stroke-linejoin:round;fill-rule:evenodd;"
d="M 150.9496,96.7000
150.9421,96.6985
150.9357,96.6943
150.9315,96.6879
150.9300,96.6804
150.9300,95.1596
150.9315,95.1521
150.9357,95.1457
150.9421,95.1415
150.9496,95.1400
151.1904,95.1400
151.1979,95.1415
151.2043,95.1457
151.2085,95.1521
151.2100,95.1596
151.2100,96.6804
151.2085,96.6879
151.2043,96.6943
151.1979,96.6985
151.1904,96.7000
Z" /> 
<path style="fill:#000000; fill-opacity:1.0000; 
stroke:#000000; stroke-width:0.0000; stroke-opacity:1; 
stroke-linecap:round; stroke-linejoin:round;fill-rule:evenodd;"
d="M 150.4496,96.7000
150.4421,96.6985
150.4357,96.6943
150.4315,96.6879
150.4300,96.6804
150.4300,95.1596
150.4315,95.1521
150.4357,95.1457
150.4421,95.1415
150.4496,95.1400
150.6904,95.1400
150.6979,95.1415
150.7043,95.1457
150.7085,95.1521
150.7100,95.1596
150.7100,96.6804
150.7085,96.6879
150.7043,96.6943
150.6979,96.6985
150.6904,96.7000
Z" /> 
<path style="fill:#000000; fill-opacity:1.0000; 
stroke:#000000; stroke-width:0.0000; stroke-opacity:1; 
stroke-linecap:round; stroke-linejoin:round;fill-rule:evenodd;"
d="M 149.9496,96.7000
149.9421,96.6985
149.9357,96.6943
149.9315,96.6879
149.9300,96.6804
149.9300,95.1596
149.9315,95.1521
149.9357,95.1457
149.9421,95.1415
149.9496,95.1400
150.1904,95.1400
150.1979,95.1415
150.2043,95.1457
150.2085,95.1521
150.2100,95.1596
150.2100,96.6804
150.2085,96.6879
150.2043,96.6943
150.1979,96.6985
150.1904,96.7000
Z" /> 
<path style="fill:#000000; fill-opacity:1.0000; 
stroke:#000000; stroke-width:0.0000; stroke-opacity:1; 
stroke-linecap:round; stroke-linejoin:round;fill-rule:evenodd;"
d="M 149.4496,96.7000
149.4421,96.6985
149.4357,96.6943
149.4315,96.6879
149.4300,96.6804
149.4300,95.1596
149.4315,95.1521
149.4357,95.1457
149.4421,95.1415
149.4496,95.1400
149.6904,95.1400
149.6979,95.1415
149.7043,95.1457
149.7085,95.1521
149.7100,95.1596
149.7100,96.6804
149.7085,96.6879
149.7043,96.6943
149.6979,96.6985
149.6904,96.7000
Z" /> 
<path style="fill:#000000; fill-opacity:1.0000; 
stroke:#000000; stroke-width:0.0000; stroke-opacity:1; 
stroke-linecap:round; stroke-linejoin:round;fill-rule:evenodd;"
d="M 148.9496,96.7000
148.9421,96.6985
148.9357,96.6943
148.9315,96.6879
148.9300,96.6804
148.9300,95.1596
148.9315,95.1521
148.9357,95.1457
148.9421,95.1415
148.9496,95.1400
149.1904,95.1400
149.1979,95.1415
149.2043,95.1457
149.2085,95.1521
149.2100,95.1596
149.2100,96.6804
149.2085,96.6879
149.2043,96.6943
149.1979,96.6985
149.1904,96.7000
Z" /> 
<path style="fill:#000000; fill-opacity:1.0000; 
stroke:#000000; stroke-width:0.0000; stroke-opacity:1; 
stroke-linecap:round; stroke-linejoin:round;fill-rule:evenodd;"
d="M 148.4496,96.7000
148.4421,96.6985
148.4357,96.6943
148.4315,96.6879
148.4300,96.6804
148.4300,95.1596
148.4315,95.1521
148.4357,95.1457
148.4421,95.1415
148.4496,95.1400
148.6904,95.1400
148.6979,95.1415
148.7043,95.1457
148.7085,95.1521
148.7100,95.1596
148.7100,96.6804
148.7085,96.6879
148.7043,96.6943
148.6979,96.6985
148.6904,96.7000
Z" /> 
<path style="fill:#000000; fill-opacity:1.0000; 
stroke:#000000; stroke-width:0.0000; stroke-opacity:1; 
stroke-linecap:round; stroke-linejoin:round;fill-rule:evenodd;"
d="M 147.9496,96.7000
147.9421,96.6985
147.9357,96.6943
147.9315,96.6879
147.9300,96.6804
147.9300,95.1596
147.9315,95.1521
147.9357,95.1457
147.9421,95.1415
147.9496,95.1400
148.1904,95.1400
148.1979,95.1415
148.2043,95.1457
148.2085,95.1521
148.2100,95.1596
148.2100,96.6804
148.2085,96.6879
148.2043,96.6943
148.1979,96.6985
148.1904,96.7000
Z" /> 
<path style="fill:#000000; fill-opacity:1.0000; 
stroke:#000000; stroke-width:0.0000; stroke-opacity:1; 
stroke-linecap:round; stroke-linejoin:round;fill-rule:evenodd;"
d="M 147.4496,96.7000
147.4421,96.6985
147.4357,96.6943
147.4315,96.6879
147.4300,96.6804
147.4300,95.1596
147.4315,95.1521
147.4357,95.1457
147.4421,95.1415
147.4496,95.1400
147.6904,95.1400
147.6979,95.1415
147.7043,95.1457
147.7085,95.1521
147.7100,95.1596
147.7100,96.6804
147.7085,96.6879
147.7043,96.6943
147.6979,96.6985
147.6904,96.7000
Z" /> 
<path style="fill:#000000; fill-opacity:1.0000; 
stroke:#000000; stroke-width:0.0000; stroke-opacity:1; 
stroke-linecap:round; stroke-linejoin:round;fill-rule:evenodd;"
d="M 146.9496,96.7000
146.9421,96.6985
146.9357,96.6943
146.9315,96.6879
146.9300,96.6804
146.9300,95.1596
146.9315,95.1521
146.9357,95.1457
146.9421,95.1415
146.9496,95.1400
147.1904,95.1400
147.1979,95.1415
147.2043,95.1457
147.2085,95.1521
147.2100,95.1596
147.2100,96.6804
147.2085,96.6879
147.2043,96.6943
147.1979,96.6985
147.1904,96.7000
Z" /> 
<path style="fill:#000000; fill-opacity:1.0000; 
stroke:#000000; stroke-width:0.0000; stroke-opacity:1; 
stroke-linecap:round; stroke-linejoin:round;fill-rule:evenodd;"
d="M 146.4496,96.7000
146.4421,96.6985
146.4357,96.6943
146.4315,96.6879
146.4300,96.6804
146.4300,95.1596
146.4315,95.1521
146.4357,95.1457
146.4421,95.1415
146.4496,95.1400
146.6904,95.1400
146.6979,95.1415
146.7043,95.1457
146.7085,95.1521
146.7100,95.1596
146.7100,96.6804
146.7085,96.6879
146.7043,96.6943
146.6979,96.6985
146.6904,96.7000
Z" /> 
<path style="fill:#000000; fill-opacity:1.0000; 
stroke:#000000; stroke-width:0.0000; stroke-opacity:1; 
stroke-linecap:round; stroke-linejoin:round;fill-rule:evenodd;"
d="M 145.9496,96.7000
145.9421,96.6985
145.9357,96.6943
145.9315,96.6879
145.9300,96.6804
145.9300,95.1596
145.9315,95.1521
145.9357,95.1457
145.9421,95.1415
145.9496,95.1400
146.1904,95.1400
146.1979,95.1415
146.2043,95.1457
146.2085,95.1521
146.2100,95.1596
146.2100,96.6804
146.2085,96.6879
146.2043,96.6943
146.1979,96.6985
146.1904,96.7000
Z" /> 
<path style="fill:#000000; fill-opacity:1.0000; 
stroke:#000000; stroke-width:0.0000; stroke-opacity:1; 
stroke-linecap:round; stroke-linejoin:round;fill-rule:evenodd;"
d="M 145.4496,96.7000
145.4421,96.6985
145.4357,96.6943
145.4315,96.6879
145.4300,96.6804
145.4300,95.1596
145.4315,95.1521
145.4357,95.1457
145.4421,95.1415
145.4496,95.1400
145.6904,95.1400
145.6979,95.1415
145.7043,95.1457
145.7085,95.1521
145.7100,95.1596
145.7100,96.6804
145.7085,96.6879
145.7043,96.6943
145.6979,96.6985
145.6904,96.7000
Z" /> 
<path style="fill:#000000; fill-opacity:1.0000; 
stroke:#000000; stroke-width:0.0000; stroke-opacity:1; 
stroke-linecap:round; stroke-linejoin:round;fill-rule:evenodd;"
d="M 144.9496,96.7000
144.9421,96.6985
144.9357,96.6943
144.9315,96.6879
144.9300,96.6804
144.9300,95.1596
144.9315,95.1521
144.9357,95.1457
144.9421,95.1415
144.9496,95.1400
145.1904,95.1400
145.1979,95.1415
145.2043,95.1457
145.2085,95.1521
145.2100,95.1596
145.2100,96.6804
145.2085,96.6879
145.2043,96.6943
145.1979,96.6985
145.1904,96.7000
Z" /> 
<path style="fill:#000000; fill-opacity:1.0000; 
stroke:#000000; stroke-width:0.0000; stroke-opacity:1; 
stroke-linecap:round; stroke-linejoin:round;fill-rule:evenodd;"
d="M 144.4496,96.7000
144.4421,96.6985
144.4357,96.6943
144.4315,96.6879
144.4300,96.6804
144.4300,95.1596
144.4315,95.1521
144.4357,95.1457
144.4421,95.1415
144.4496,95.1400
144.6904,95.1400
144.6979,95.1415
144.7043,95.1457
144.7085,95.1521
144.7100,95.1596
144.7100,96.6804
144.7085,96.6879
144.7043,96.6943
144.6979,96.6985
144.6904,96.7000
Z" /> 
<path style="fill:#000000; fill-opacity:1.0000; 
stroke:#000000; stroke-width:0.0000; stroke-opacity:1; 
stroke-linecap:round; stroke-linejoin:round;fill-rule:evenodd;"
d="M 143.9496,96.7000
143.9421,96.6985
143.9357,96.6943
143.9315,96.6879
143.9300,96.6804
143.9300,95.1596
143.9315,95.1521
143.9357,95.1457
143.9421,95.1415
143.9496,95.1400
144.1904,95.1400
144.1979,95.1415
144.2043,95.1457
144.2085,95.1521
144.2100,95.1596
144.2100,96.6804
144.2085,96.6879
144.2043,96.6943
144.1979,96.6985
144.1904,96.7000
Z" /> 
<path style="fill:#000000; fill-opacity:1.0000; 
stroke:#000000; stroke-width:0.0000; stroke-opacity:1; 
stroke-linecap:round; stroke-linejoin:round;fill-rule:evenodd;"
d="M 143.4496,96.7000
143.4421,96.6985
143.4357,96.6943
143.4315,96.6879
143.4300,96.6804
143.4300,95.1596
143.4315,95.1521
143.4357,95.1457
143.4421,95.1415
143.4496,95.1400
143.6904,95.1400
143.6979,95.1415
143.7043,95.1457
143.7085,95.1521
143.7100,95.1596
143.7100,96.6804
143.7085,96.6879
143.7043,96.6943
143.6979,96.6985
143.6904,96.7000
Z" /> 
</g>
<g >
</g>
<g style="fill:#000000; fill-opacity:1.0000; 
stroke:#000000; stroke-width:0.0000; stroke-opacity:1; 
stroke-linecap:round; stroke-linejoin:round;">
<path style="fill:#000000; fill-opacity:1.0000; 
stroke:#000000; stroke-width:0.0000; stroke-opacity:1; 
stroke-linecap:round; stroke-linejoin:round;fill-rule:evenodd;"
d="M 150.8350,82.4140
150.2350,82.4140
150.2350,81.8740
150.8350,81.8740
Z" /> 
<path style="fill:#000000; fill-opacity:1.0000; 
stroke:#000000; stroke-width:0.0000; stroke-opacity:1; 
stroke-linecap:round; stroke-linejoin:round;fill-rule:evenodd;"
d="M 150.8350,81.5500
150.2350,81.5500
150.2350,81.0100
150.8350,81.0100
Z" /> 
</g>
<g >
</g>
<g style="fill:#000000; fill-opacity:1.0000; 
stroke:#000000; stroke-width:0.0000; stroke-opacity:1; 
stroke-linecap:round; stroke-linejoin:round;">
<path style="fill:#000000; fill-opacity:1.0000; 
stroke:#000000; stroke-width:0.0000; stroke-opacity:1; 
stroke-linecap:round; stroke-linejoin:round;fill-rule:evenodd;"
d="M 141.7950,66.5050
141.7950,65.5750
142.6850,65.5750
142.6850,66.5050
Z" /> 
<path style="fill:#000000; fill-opacity:1.0000; 
stroke:#000000; stroke-width:0.0000; stroke-opacity:1; 
stroke-linecap:round; stroke-linejoin:round;fill-rule:evenodd;"
d="M 143.3350,66.5050
143.3350,65.5750
144.2250,65.5750
144.2250,66.5050
Z" /> 
</g>
<g >
</g>
<g style="fill:#000000; fill-opacity:1.0000; 
stroke:#000000; stroke-width:0.0000; stroke-opacity:1; 
stroke-linecap:round; stroke-linejoin:round;">
<path style="fill:#000000; fill-opacity:1.0000; 
stroke:#000000; stroke-width:0.0000; stroke-opacity:1; 
stroke-linecap:round; stroke-linejoin:round;fill-rule:evenodd;"
d="M 168.9650,66.5050
168.9650,65.5750
169.8550,65.5750
169.8550,66.5050
Z" /> 
<path style="fill:#000000; fill-opacity:1.0000; 
stroke:#000000; stroke-width:0.0000; stroke-opacity:1; 
stroke-linecap:round; stroke-linejoin:round;fill-rule:evenodd;"
d="M 170.5050,66.5050
170.5050,65.5750
171.3950,65.5750
171.3950,66.5050
Z" /> 
</g>
<g >
</g>
<g style="fill:#000000; fill-opacity:1.0000; 
stroke:#000000; stroke-width:0.0000; stroke-opacity:1; 
stroke-linecap:round; stroke-linejoin:round;">
<path style="fill:#000000; fill-opacity:1.0000; 
stroke:#000000; stroke-width:0.0000; stroke-opacity:1; 
stroke-linecap:round; stroke-linejoin:round;fill-rule:evenodd;"
d="M 130.8650,66.6850
130.8650,65.7550
131.7550,65.7550
131.7550,66.6850
Z" /> 
<path style="fill:#000000; fill-opacity:1.0000; 
stroke:#000000; stroke-width:0.0000; stroke-opacity:1; 
stroke-linecap:round; stroke-linejoin:round;fill-rule:evenodd;"
d="M 132.4050,66.6850
132.4050,65.7550
133.2950,65.7550
133.2950,66.6850
Z" /> 
</g>
<g >
</g>
<g style="fill:#000000; fill-opacity:1.0000; 
stroke:#000000; stroke-width:0.0000; stroke-opacity:1; 
stroke-linecap:round; stroke-linejoin:round;">
<path style="fill:#000000; fill-opacity:1.0000; 
stroke:#000000; stroke-width:0.0000; stroke-opacity:1; 
stroke-linecap:round; stroke-linejoin:round;fill-rule:evenodd;"
d="M 145.0800,82.4540
144.4800,82.4540
144.4800,81.9140
145.0800,81.9140
Z" /> 
<path style="fill:#000000; fill-opacity:1.0000; 
stroke:#000000; stroke-width:0.0000; stroke-opacity:1; 
stroke-linecap:round; stroke-linejoin:round;fill-rule:evenodd;"
d="M 145.0800,81.5900
144.4800,81.5900
144.4800,81.0500
145.0800,81.0500
Z" /> 
</g>
<g >
</g>
<g style="fill:#000000; fill-opacity:1.0000; 
stroke:#000000; stroke-width:0.0000; stroke-opacity:1; 
stroke-linecap:round; stroke-linejoin:round;">
<path style="fill:#000000; fill-opacity:1.0000; 
stroke:#000000; stroke-width:0.0000; stroke-opacity:1; 
stroke-linecap:round; stroke-linejoin:round;fill-rule:evenodd;"
d="M 162.1150,66.5050
162.1150,65.5750
163.0050,65.5750
163.0050,66.5050
Z" /> 
<path style="fill:#000000; fill-opacity:1.0000; 
stroke:#000000; stroke-width:0.0000; stroke-opacity:1; 
stroke-linecap:round; stroke-linejoin:round;fill-rule:evenodd;"
d="M 163.6550,66.5050
163.6550,65.5750
164.5450,65.5750
164.5450,66.5050
Z" /> 
</g>
<g >
</g>
<g style="fill:#000000; fill-opacity:1.0000; 
stroke:#000000; stroke-width:0.0000; stroke-opacity:1; 
stroke-linecap:round; stroke-linejoin:round;">
<path style="fill:#000000; fill-opacity:1.0000; 
stroke:#000000; stroke-width:0.0000; stroke-opacity:1; 
stroke-linecap:round; stroke-linejoin:round;fill-rule:evenodd;"
d="M 188.7750,95.6500
188.2250,95.6500
188.2250,94.5050
188.7750,94.5050
Z" /> 
<path style="fill:#000000; fill-opacity:1.0000; 
stroke:#000000; stroke-width:0.0000; stroke-opacity:1; 
stroke-linecap:round; stroke-linejoin:round;fill-rule:evenodd;"
d="M 189.5750,95.6500
189.0250,95.6500
189.0250,94.5050
189.5750,94.5050
Z" /> 
<path style="fill:#000000; fill-opacity:1.0000; 
stroke:#000000; stroke-width:0.0000; stroke-opacity:1; 
stroke-linecap:round; stroke-linejoin:round;fill-rule:evenodd;"
d="M 190.3750,95.6500
189.8250,95.6500
189.8250,94.5050
190.3750,94.5050
Z" /> 
<path style="fill:#000000; fill-opacity:1.0000; 
stroke:#000000; stroke-width:0.0000; stroke-opacity:1; 
stroke-linecap:round; stroke-linejoin:round;fill-rule:evenodd;"
d="M 191.1750,95.6500
190.6250,95.6500
190.6250,94.5050
191.1750,94.5050
Z" /> 
<path style="fill:#000000; fill-opacity:1.0000; 
stroke:#000000; stroke-width:0.0000; stroke-opacity:1; 
stroke-linecap:round; stroke-linejoin:round;fill-rule:evenodd;"
d="M 191.9750,95.6500
191.4250,95.6500
191.4250,94.5050
191.9750,94.5050
Z" /> 
<path style="fill:#000000; fill-opacity:1.0000; 
stroke:#000000; stroke-width:0.0000; stroke-opacity:1; 
stroke-linecap:round; stroke-linejoin:round;fill-rule:evenodd;"
d="M 192.7750,95.6500
192.2250,95.6500
192.2250,94.5050
192.7750,94.5050
Z" /> 
<path style="fill:#000000; fill-opacity:1.0000; 
stroke:#000000; stroke-width:0.0000; stroke-opacity:1; 
stroke-linecap:round; stroke-linejoin:round;fill-rule:evenodd;"
d="M 193.1700,94.2550
192.0250,94.2550
192.0250,93.7050
193.1700,93.7050
Z" /> 
<path style="fill:#000000; fill-opacity:1.0000; 
stroke:#000000; stroke-width:0.0000; stroke-opacity:1; 
stroke-linecap:round; stroke-linejoin:round;fill-rule:evenodd;"
d="M 192.7750,93.4550
192.2250,93.4550
192.2250,92.3100
192.7750,92.3100
Z" /> 
<path style="fill:#000000; fill-opacity:1.0000; 
stroke:#000000; stroke-width:0.0000; stroke-opacity:1; 
stroke-linecap:round; stroke-linejoin:round;fill-rule:evenodd;"
d="M 191.9750,93.4550
191.4250,93.4550
191.4250,92.3100
191.9750,92.3100
Z" /> 
<path style="fill:#000000; fill-opacity:1.0000; 
stroke:#000000; stroke-width:0.0000; stroke-opacity:1; 
stroke-linecap:round; stroke-linejoin:round;fill-rule:evenodd;"
d="M 191.1750,93.4550
190.6250,93.4550
190.6250,92.3100
191.1750,92.3100
Z" /> 
<path style="fill:#000000; fill-opacity:1.0000; 
stroke:#000000; stroke-width:0.0000; stroke-opacity:1; 
stroke-linecap:round; stroke-linejoin:round;fill-rule:evenodd;"
d="M 190.3750,93.4550
189.8250,93.4550
189.8250,92.3100
190.3750,92.3100
Z" /> 
<path style="fill:#000000; fill-opacity:1.0000; 
stroke:#000000; stroke-width:0.0000; stroke-opacity:1; 
stroke-linecap:round; stroke-linejoin:round;fill-rule:evenodd;"
d="M 189.5750,93.4550
189.0250,93.4550
189.0250,92.3100
189.5750,92.3100
Z" /> 
<path style="fill:#000000; fill-opacity:1.0000; 
stroke:#000000; stroke-width:0.0000; stroke-opacity:1; 
stroke-linecap:round; stroke-linejoin:round;fill-rule:evenodd;"
d="M 188.7750,93.4550
188.2250,93.4550
188.2250,92.3100
188.7750,92.3100
Z" /> 
<path style="fill:#000000; fill-opacity:1.0000; 
stroke:#000000; stroke-width:0.0000; stroke-opacity:1; 
stroke-linecap:round; stroke-linejoin:round;fill-rule:evenodd;"
d="M 188.9750,94.2550
187.8300,94.2550
187.8300,93.7050
188.9750,93.7050
Z" /> 
</g>
<g >
</g>
<g >
</g>
<g style="fill:#000000; fill-opacity:1.0000; 
stroke:#000000; stroke-width:0.0000; stroke-opacity:1; 
stroke-linecap:round; stroke-linejoin:round;">
<path style="fill:#000000; fill-opacity:1.0000; 
stroke:#000000; stroke-width:0.0000; stroke-opacity:1; 
stroke-linecap:round; stroke-linejoin:round;fill-rule:evenodd;"
d="M 148.6450,66.5050
148.6450,65.5750
149.5350,65.5750
149.5350,66.5050
Z" /> 
<path style="fill:#000000; fill-opacity:1.0000; 
stroke:#000000; stroke-width:0.0000; stroke-opacity:1; 
stroke-linecap:round; stroke-linejoin:round;fill-rule:evenodd;"
d="M 150.1850,66.5050
150.1850,65.5750
151.0750,65.5750
151.0750,66.5050
Z" /> 
</g>
<g >
</g>
<g style="fill:#000000; fill-opacity:1.0000; 
stroke:#000000; stroke-width:0.0000; stroke-opacity:1; 
stroke-linecap:round; stroke-linejoin:round;">
<path style="fill:#000000; fill-opacity:1.0000; 
stroke:#000000; stroke-width:0.0000; stroke-opacity:1; 
stroke-linecap:round; stroke-linejoin:round;fill-rule:evenodd;"
d="M 155.9250,66.5050
155.9250,65.5750
156.8150,65.5750
156.8150,66.5050
Z" /> 
<path style="fill:#000000; fill-opacity:1.0000; 
stroke:#000000; stroke-width:0.0000; stroke-opacity:1; 
stroke-linecap:round; stroke-linejoin:round;fill-rule:evenodd;"
d="M 157.4650,66.5050
157.4650,65.5750
158.3550,65.5750
158.3550,66.5050
Z" /> 
</g>
<g >
</g>
<g style="fill:#000000; fill-opacity:1.0000; 
stroke:#000000; stroke-width:0.0000; stroke-opacity:1; 
stroke-linecap:round; stroke-linejoin:round;">
<path style="fill:#000000; fill-opacity:1.0000; 
stroke:#000000; stroke-width:0.0000; stroke-opacity:1; 
stroke-linecap:round; stroke-linejoin:round;fill-rule:evenodd;"
d="M 163.3100,75.2600
161.8100,75.2600
161.8100,73.9600
163.3100,73.9600
Z" /> 
<path style="fill:#000000; fill-opacity:1.0000; 
stroke:#000000; stroke-width:0.0000; stroke-opacity:1; 
stroke-linecap:round; stroke-linejoin:round;fill-rule:evenodd;"
d="M 163.3100,73.3600
161.8100,73.3600
161.8100,72.0600
163.3100,72.0600
Z" /> 
</g>
<g >
</g>
<g style="fill:#000000; fill-opacity:1.0000; 
stroke:#000000; stroke-width:0.0000; stroke-opacity:1; 
stroke-linecap:round; stroke-linejoin:round;">
<path style="fill:#000000; fill-opacity:1.0000; 
stroke:#000000; stroke-width:0.0000; stroke-opacity:1; 
stroke-linecap:round; stroke-linejoin:round;fill-rule:evenodd;"
d="M 117.3550,84.9450
117.3550,82.6950
118.4550,82.6950
118.4550,84.9450
Z" /> 
<path style="fill:#000000; fill-opacity:1.0000; 
stroke:#000000; stroke-width:0.0000; stroke-opacity:1; 
stroke-linecap:round; stroke-linejoin:round;fill-rule:evenodd;"
d="M 120.3050,84.9450
120.3050,82.6950
121.4050,82.6950
121.4050,84.9450
Z" /> 
<path style="fill:#000000; fill-opacity:1.0000; 
stroke:#000000; stroke-width:0.0000; stroke-opacity:1; 
stroke-linecap:round; stroke-linejoin:round;fill-rule:evenodd;"
d="M 118.8550,85.9200
118.8550,84.8200
119.9050,84.8200
119.9050,85.9200
Z" /> 
</g>
<g >
</g>
<g style="fill:#000000; fill-opacity:1.0000; 
stroke:#000000; stroke-width:0.0000; stroke-opacity:1; 
stroke-linecap:round; stroke-linejoin:round;">
<path style="fill:#000000; fill-opacity:1.0000; 
stroke:#000000; stroke-width:0.0000; stroke-opacity:1; 
stroke-linecap:round; stroke-linejoin:round;fill-rule:evenodd;"
d="M 124.0150,66.6850
124.0150,65.7550
124.9050,65.7550
124.9050,66.6850
Z" /> 
<path style="fill:#000000; fill-opacity:1.0000; 
stroke:#000000; stroke-width:0.0000; stroke-opacity:1; 
stroke-linecap:round; stroke-linejoin:round;fill-rule:evenodd;"
d="M 125.5550,66.6850
125.5550,65.7550
126.4450,65.7550
126.4450,66.6850
Z" /> 
</g>
<g >
</g>
<g style="fill:#000000; fill-opacity:1.0000; 
stroke:#000000; stroke-width:0.0000; stroke-opacity:1; 
stroke-linecap:round; stroke-linejoin:round;">
<path style="fill:#000000; fill-opacity:1.0000; 
stroke:#000000; stroke-width:0.0000; stroke-opacity:1; 
stroke-linecap:round; stroke-linejoin:round;fill-rule:evenodd;"
d="M 150.7250,75.6250
148.9950,75.6250
148.9950,74.6550
150.7250,74.6550
Z" /> 
<path style="fill:#000000; fill-opacity:1.0000; 
stroke:#000000; stroke-width:0.0000; stroke-opacity:1; 
stroke-linecap:round; stroke-linejoin:round;fill-rule:evenodd;"
d="M 150.7250,72.6650
148.9950,72.6650
148.9950,71.6950
150.7250,71.6950
Z" /> 
</g>
<g >
</g>
<g style="fill:#000000; fill-opacity:1.0000; 
stroke:#000000; stroke-width:0.0000; stroke-opacity:1; 
stroke-linecap:round; stroke-linejoin:round;">
<path style="fill:#000000; fill-opacity:1.0000; 
stroke:#000000; stroke-width:0.0000; stroke-opacity:1; 
stroke-linecap:round; stroke-linejoin:round;fill-rule:evenodd;"
d="M 135.3550,82.7350
133.8850,82.7350
133.8850,81.5750
135.3550,81.5750
Z" /> 
<path style="fill:#000000; fill-opacity:1.0000; 
stroke:#000000; stroke-width:0.0000; stroke-opacity:1; 
stroke-linecap:round; stroke-linejoin:round;fill-rule:evenodd;"
d="M 135.3550,80.9850
133.8850,80.9850
133.8850,79.8250
135.3550,79.8250
Z" /> 
</g>
<g >
</g>
<g style="fill:#000000; fill-opacity:1.0000; 
stroke:#000000; stroke-width:0.0000; stroke-opacity:1; 
stroke-linecap:round; stroke-linejoin:round;">
<path style="fill:#000000; fill-opacity:1.0000; 
stroke:#000000; stroke-width:0.0000; stroke-opacity:1; 
stroke-linecap:round; stroke-linejoin:round;fill-rule:evenodd;"
d="M 182.4350,66.5050
182.4350,65.5750
183.3250,65.5750
183.3250,66.5050
Z" /> 
<path style="fill:#000000; fill-opacity:1.0000; 
stroke:#000000; stroke-width:0.0000; stroke-opacity:1; 
stroke-linecap:round; stroke-linejoin:round;fill-rule:evenodd;"
d="M 183.9750,66.5050
183.9750,65.5750
184.8650,65.5750
184.8650,66.5050
Z" /> 
</g>
<g >
</g>
<g style="fill:#000000; fill-opacity:1.0000; 
stroke:#000000; stroke-width:0.0000; stroke-opacity:1; 
stroke-linecap:round; stroke-linejoin:round;">
<path style="fill:#000000; fill-opacity:1.0000; 
stroke:#000000; stroke-width:0.0000; stroke-opacity:1; 
stroke-linecap:round; stroke-linejoin:round;fill-rule:evenodd;"
d="M 196.0800,75.9100
195.0800,75.9100
195.0800,74.8100
196.0800,74.8100
Z" /> 
<path style="fill:#000000; fill-opacity:1.0000; 
stroke:#000000; stroke-width:0.0000; stroke-opacity:1; 
stroke-linecap:round; stroke-linejoin:round;fill-rule:evenodd;"
d="M 196.0800,74.2100
195.0800,74.2100
195.0800,73.1100
196.0800,73.1100
Z" /> 
</g>
<g >
</g>
<g >
</g>
<g style="fill:#000000; fill-opacity:1.0000; 
stroke:#000000; stroke-width:0.0000; stroke-opacity:1; 
stroke-linecap:round; stroke-linejoin:round;">
<path style="fill:#000000; fill-opacity:1.0000; 
stroke:#000000; stroke-width:0.0000; stroke-opacity:1; 
stroke-linecap:round; stroke-linejoin:round;fill-rule:evenodd;"
d="M 145.6450,75.6250
143.9150,75.6250
143.9150,74.6550
145.6450,74.6550
Z" /> 
<path style="fill:#000000; fill-opacity:1.0000; 
stroke:#000000; stroke-width:0.0000; stroke-opacity:1; 
stroke-linecap:round; stroke-linejoin:round;fill-rule:evenodd;"
d="M 145.6450,72.6650
143.9150,72.6650
143.9150,71.6950
145.6450,71.6950
Z" /> 
</g>
<g >
</g>
<g >
</g>
<g style="fill:#000000; fill-opacity:1.0000; 
stroke:#000000; stroke-width:0.0000; stroke-opacity:1; 
stroke-linecap:round; stroke-linejoin:round;">
<path style="fill:#000000; fill-opacity:1.0000; 
stroke:#000000; stroke-width:0.0000; stroke-opacity:1; 
stroke-linecap:round; stroke-linejoin:round;fill-rule:evenodd;"
d="M 191.5350,120.7590
191.5361,120.7536
191.5391,120.7491
191.5436,120.7461
191.5490,120.7450
192.0110,120.7450
192.0164,120.7461
192.0209,120.7491
192.0239,120.7536
192.0250,120.7590
192.0250,121.0810
192.0239,121.0864
192.0209,121.0909
192.0164,121.0939
192.0110,121.0950
191.5490,121.0950
191.5436,121.0939
191.5391,121.0909
191.5361,121.0864
191.5350,121.0810
Z" /> 
<path style="fill:#000000; fill-opacity:1.0000; 
stroke:#000000; stroke-width:0.0000; stroke-opacity:1; 
stroke-linecap:round; stroke-linejoin:round;fill-rule:evenodd;"
d="M 191.5350,121.2590
191.5361,121.2536
191.5391,121.2491
191.5436,121.2461
191.5490,121.2450
192.0110,121.2450
192.0164,121.2461
192.0209,121.2491
192.0239,121.2536
192.0250,121.2590
192.0250,121.5810
192.0239,121.5864
192.0209,121.5909
192.0164,121.5939
192.0110,121.5950
191.5490,121.5950
191.5436,121.5939
191.5391,121.5909
191.5361,121.5864
191.5350,121.5810
Z" /> 
<path style="fill:#000000; fill-opacity:1.0000; 
stroke:#000000; stroke-width:0.0000; stroke-opacity:1; 
stroke-linecap:round; stroke-linejoin:round;fill-rule:evenodd;"
d="M 191.5350,121.7590
191.5361,121.7536
191.5391,121.7491
191.5436,121.7461
191.5490,121.7450
192.0110,121.7450
192.0164,121.7461
192.0209,121.7491
192.0239,121.7536
192.0250,121.7590
192.0250,122.0810
192.0239,122.0864
192.0209,122.0909
192.0164,122.0939
192.0110,122.0950
191.5490,122.0950
191.5436,122.0939
191.5391,122.0909
191.5361,122.0864
191.5350,122.0810
Z" /> 
<path style="fill:#000000; fill-opacity:1.0000; 
stroke:#000000; stroke-width:0.0000; stroke-opacity:1; 
stroke-linecap:round; stroke-linejoin:round;fill-rule:evenodd;"
d="M 191.5350,122.2590
191.5361,122.2536
191.5391,122.2491
191.5436,122.2461
191.5490,122.2450
192.0110,122.2450
192.0164,122.2461
192.0209,122.2491
192.0239,122.2536
192.0250,122.2590
192.0250,122.5810
192.0239,122.5864
192.0209,122.5909
192.0164,122.5939
192.0110,122.5950
191.5490,122.5950
191.5436,122.5939
191.5391,122.5909
191.5361,122.5864
191.5350,122.5810
Z" /> 
<path style="fill:#000000; fill-opacity:1.0000; 
stroke:#000000; stroke-width:0.0000; stroke-opacity:1; 
stroke-linecap:round; stroke-linejoin:round;fill-rule:evenodd;"
d="M 191.5350,122.7590
191.5361,122.7536
191.5391,122.7491
191.5436,122.7461
191.5490,122.7450
192.0110,122.7450
192.0164,122.7461
192.0209,122.7491
192.0239,122.7536
192.0250,122.7590
192.0250,123.0810
192.0239,123.0864
192.0209,123.0909
192.0164,123.0939
192.0110,123.0950
191.5490,123.0950
191.5436,123.0939
191.5391,123.0909
191.5361,123.0864
191.5350,123.0810
Z" /> 
<path style="fill:#000000; fill-opacity:1.0000; 
stroke:#000000; stroke-width:0.0000; stroke-opacity:1; 
stroke-linecap:round; stroke-linejoin:round;fill-rule:evenodd;"
d="M 192.3790,123.4250
192.3736,123.4239
192.3691,123.4209
192.3661,123.4164
192.3650,123.4110
192.3650,122.9490
192.3661,122.9436
192.3691,122.9391
192.3736,122.9361
192.3790,122.9350
192.7010,122.9350
192.7064,122.9361
192.7109,122.9391
192.7139,122.9436
192.7150,122.9490
192.7150,123.4110
192.7139,123.4164
192.7109,123.4209
192.7064,123.4239
192.7010,123.4250
Z" /> 
<path style="fill:#000000; fill-opacity:1.0000; 
stroke:#000000; stroke-width:0.0000; stroke-opacity:1; 
stroke-linecap:round; stroke-linejoin:round;fill-rule:evenodd;"
d="M 192.8790,123.4250
192.8736,123.4239
192.8691,123.4209
192.8661,123.4164
192.8650,123.4110
192.8650,122.9490
192.8661,122.9436
192.8691,122.9391
192.8736,122.9361
192.8790,122.9350
193.2010,122.9350
193.2064,122.9361
193.2109,122.9391
193.2139,122.9436
193.2150,122.9490
193.2150,123.4110
193.2139,123.4164
193.2109,123.4209
193.2064,123.4239
193.2010,123.4250
Z" /> 
<path style="fill:#000000; fill-opacity:1.0000; 
stroke:#000000; stroke-width:0.0000; stroke-opacity:1; 
stroke-linecap:round; stroke-linejoin:round;fill-rule:evenodd;"
d="M 193.3790,123.4250
193.3736,123.4239
193.3691,123.4209
193.3661,123.4164
193.3650,123.4110
193.3650,122.9490
193.3661,122.9436
193.3691,122.9391
193.3736,122.9361
193.3790,122.9350
193.7010,122.9350
193.7064,122.9361
193.7109,122.9391
193.7139,122.9436
193.7150,122.9490
193.7150,123.4110
193.7139,123.4164
193.7109,123.4209
193.7064,123.4239
193.7010,123.4250
Z" /> 
<path style="fill:#000000; fill-opacity:1.0000; 
stroke:#000000; stroke-width:0.0000; stroke-opacity:1; 
stroke-linecap:round; stroke-linejoin:round;fill-rule:evenodd;"
d="M 194.5450,123.0810
194.5439,123.0864
194.5409,123.0909
194.5364,123.0939
194.5310,123.0950
194.0690,123.0950
194.0636,123.0939
194.0591,123.0909
194.0561,123.0864
194.0550,123.0810
194.0550,122.7590
194.0561,122.7536
194.0591,122.7491
194.0636,122.7461
194.0690,122.7450
194.5310,122.7450
194.5364,122.7461
194.5409,122.7491
194.5439,122.7536
194.5450,122.7590
Z" /> 
<path style="fill:#000000; fill-opacity:1.0000; 
stroke:#000000; stroke-width:0.0000; stroke-opacity:1; 
stroke-linecap:round; stroke-linejoin:round;fill-rule:evenodd;"
d="M 194.5450,122.5810
194.5439,122.5864
194.5409,122.5909
194.5364,122.5939
194.5310,122.5950
194.0690,122.5950
194.0636,122.5939
194.0591,122.5909
194.0561,122.5864
194.0550,122.5810
194.0550,122.2590
194.0561,122.2536
194.0591,122.2491
194.0636,122.2461
194.0690,122.2450
194.5310,122.2450
194.5364,122.2461
194.5409,122.2491
194.5439,122.2536
194.5450,122.2590
Z" /> 
<path style="fill:#000000; fill-opacity:1.0000; 
stroke:#000000; stroke-width:0.0000; stroke-opacity:1; 
stroke-linecap:round; stroke-linejoin:round;fill-rule:evenodd;"
d="M 194.5450,122.0810
194.5439,122.0864
194.5409,122.0909
194.5364,122.0939
194.5310,122.0950
194.0690,122.0950
194.0636,122.0939
194.0591,122.0909
194.0561,122.0864
194.0550,122.0810
194.0550,121.7590
194.0561,121.7536
194.0591,121.7491
194.0636,121.7461
194.0690,121.7450
194.5310,121.7450
194.5364,121.7461
194.5409,121.7491
194.5439,121.7536
194.5450,121.7590
Z" /> 
<path style="fill:#000000; fill-opacity:1.0000; 
stroke:#000000; stroke-width:0.0000; stroke-opacity:1; 
stroke-linecap:round; stroke-linejoin:round;fill-rule:evenodd;"
d="M 194.5450,121.5810
194.5439,121.5864
194.5409,121.5909
194.5364,121.5939
194.5310,121.5950
194.0690,121.5950
194.0636,121.5939
194.0591,121.5909
194.0561,121.5864
194.0550,121.5810
194.0550,121.2590
194.0561,121.2536
194.0591,121.2491
194.0636,121.2461
194.0690,121.2450
194.5310,121.2450
194.5364,121.2461
194.5409,121.2491
194.5439,121.2536
194.5450,121.2590
Z" /> 
<path style="fill:#000000; fill-opacity:1.0000; 
stroke:#000000; stroke-width:0.0000; stroke-opacity:1; 
stroke-linecap:round; stroke-linejoin:round;fill-rule:evenodd;"
d="M 194.5450,121.0810
194.5439,121.0864
194.5409,121.0909
194.5364,121.0939
194.5310,121.0950
194.0690,121.0950
194.0636,121.0939
194.0591,121.0909
194.0561,121.0864
194.0550,121.0810
194.0550,120.7590
194.0561,120.7536
194.0591,120.7491
194.0636,120.7461
194.0690,120.7450
194.5310,120.7450
194.5364,120.7461
194.5409,120.7491
194.5439,120.7536
194.5450,120.7590
Z" /> 
<path style="fill:#000000; fill-opacity:1.0000; 
stroke:#000000; stroke-width:0.0000; stroke-opacity:1; 
stroke-linecap:round; stroke-linejoin:round;fill-rule:evenodd;"
d="M 193.7010,120.4150
193.7064,120.4161
193.7109,120.4191
193.7139,120.4236
193.7150,120.4290
193.7150,120.8910
193.7139,120.8964
193.7109,120.9009
193.7064,120.9039
193.7010,120.9050
193.3790,120.9050
193.3736,120.9039
193.3691,120.9009
193.3661,120.8964
193.3650,120.8910
193.3650,120.4290
193.3661,120.4236
193.3691,120.4191
193.3736,120.4161
193.3790,120.4150
Z" /> 
<path style="fill:#000000; fill-opacity:1.0000; 
stroke:#000000; stroke-width:0.0000; stroke-opacity:1; 
stroke-linecap:round; stroke-linejoin:round;fill-rule:evenodd;"
d="M 193.2010,120.4150
193.2064,120.4161
193.2109,120.4191
193.2139,120.4236
193.2150,120.4290
193.2150,120.8910
193.2139,120.8964
193.2109,120.9009
193.2064,120.9039
193.2010,120.9050
192.8790,120.9050
192.8736,120.9039
192.8691,120.9009
192.8661,120.8964
192.8650,120.8910
192.8650,120.4290
192.8661,120.4236
192.8691,120.4191
192.8736,120.4161
192.8790,120.4150
Z" /> 
<path style="fill:#000000; fill-opacity:1.0000; 
stroke:#000000; stroke-width:0.0000; stroke-opacity:1; 
stroke-linecap:round; stroke-linejoin:round;fill-rule:evenodd;"
d="M 192.7010,120.4150
192.7064,120.4161
192.7109,120.4191
192.7139,120.4236
192.7150,120.4290
192.7150,120.8910
192.7139,120.8964
192.7109,120.9009
192.7064,120.9039
192.7010,120.9050
192.3790,120.9050
192.3736,120.9039
192.3691,120.9009
192.3661,120.8964
192.3650,120.8910
192.3650,120.4290
192.3661,120.4236
192.3691,120.4191
192.3736,120.4161
192.3790,120.4150
Z" /> 
</g>
<g >
</g>
<g style="fill:#000000; fill-opacity:1.0000; 
stroke:#000000; stroke-width:0.0000; stroke-opacity:1; 
stroke-linecap:round; stroke-linejoin:round;">
<path style="fill:#000000; fill-opacity:1.0000; 
stroke:#000000; stroke-width:0.0000; stroke-opacity:1; 
stroke-linecap:round; stroke-linejoin:round;fill-rule:evenodd;"
d="M 176.2450,66.5050
176.2450,65.5750
177.1350,65.5750
177.1350,66.5050
Z" /> 
<path style="fill:#000000; fill-opacity:1.0000; 
stroke:#000000; stroke-width:0.0000; stroke-opacity:1; 
stroke-linecap:round; stroke-linejoin:round;fill-rule:evenodd;"
d="M 177.7850,66.5050
177.7850,65.5750
178.6750,65.5750
178.6750,66.5050
Z" /> 
</g>
<g >
</g>
<g style="fill:#000000; fill-opacity:1.0000; 
stroke:#000000; stroke-width:0.0000; stroke-opacity:1; 
stroke-linecap:round; stroke-linejoin:round;">
<path style="fill:#000000; fill-opacity:1.0000; 
stroke:#000000; stroke-width:0.0000; stroke-opacity:1; 
stroke-linecap:round; stroke-linejoin:round;fill-rule:evenodd;"
d="M 158.4700,136.0600
157.0700,136.0600
157.0700,133.9600
158.4700,133.9600
Z" /> 
<path style="fill:#000000; fill-opacity:1.0000; 
stroke:#000000; stroke-width:0.0000; stroke-opacity:1; 
stroke-linecap:round; stroke-linejoin:round;fill-rule:evenodd;"
d="M 162.9700,136.0600
161.5700,136.0600
161.5700,133.9600
162.9700,133.9600
Z" /> 
<path style="fill:#000000; fill-opacity:1.0000; 
stroke:#000000; stroke-width:0.0000; stroke-opacity:1; 
stroke-linecap:round; stroke-linejoin:round;fill-rule:evenodd;"
d="M 158.4700,126.9600
157.0700,126.9600
157.0700,124.8600
158.4700,124.8600
Z" /> 
<path style="fill:#000000; fill-opacity:1.0000; 
stroke:#000000; stroke-width:0.0000; stroke-opacity:1; 
stroke-linecap:round; stroke-linejoin:round;fill-rule:evenodd;"
d="M 162.9700,126.9600
161.5700,126.9600
161.5700,124.8600
162.9700,124.8600
Z" /> 
</g>
<g >
</g>
<g style="fill:#000000; fill-opacity:1.0000; 
stroke:#000000; stroke-width:0.0000; stroke-opacity:1; 
stroke-linecap:round; stroke-linejoin:round;">
<path style="fill:#000000; fill-opacity:1.0000; 
stroke:#000000; stroke-width:0.0000; stroke-opacity:1; 
stroke-linecap:round; stroke-linejoin:round;fill-rule:evenodd;"
d="M 128.3600,75.7660
125.6400,75.7660
125.6400,74.2360
128.3600,74.2360
Z" /> 
<path style="fill:#000000; fill-opacity:1.0000; 
stroke:#000000; stroke-width:0.0000; stroke-opacity:1; 
stroke-linecap:round; stroke-linejoin:round;fill-rule:evenodd;"
d="M 128.3600,73.0840
125.6400,73.0840
125.6400,71.5540
128.3600,71.5540
Z" /> 
</g>
<g >
</g>
<g style="fill:#000000; fill-opacity:1.0000; 
stroke:#000000; stroke-width:0.0000; stroke-opacity:1; 
stroke-linecap:round; stroke-linejoin:round;">
<path style="fill:#000000; fill-opacity:1.0000; 
stroke:#000000; stroke-width:0.0000; stroke-opacity:1; 
stroke-linecap:round; stroke-linejoin:round;fill-rule:evenodd;"
d="M 189.2850,66.5050
189.2850,65.5750
190.1750,65.5750
190.1750,66.5050
Z" /> 
<path style="fill:#000000; fill-opacity:1.0000; 
stroke:#000000; stroke-width:0.0000; stroke-opacity:1; 
stroke-linecap:round; stroke-linejoin:round;fill-rule:evenodd;"
d="M 190.8250,66.5050
190.8250,65.5750
191.7150,65.5750
191.7150,66.5050
Z" /> 
</g>
<g >
</g>
<g style="fill:#000000; fill-opacity:1.0000; 
stroke:#000000; stroke-width:0.0000; stroke-opacity:1; 
stroke-linecap:round; stroke-linejoin:round;">
<path style="fill:#000000; fill-opacity:1.0000; 
stroke:#000000; stroke-width:0.0000; stroke-opacity:1; 
stroke-linecap:round; stroke-linejoin:round;fill-rule:evenodd;"
d="M 168.5600,136.0600
167.1600,136.0600
167.1600,133.9600
168.5600,133.9600
Z" /> 
<path style="fill:#000000; fill-opacity:1.0000; 
stroke:#000000; stroke-width:0.0000; stroke-opacity:1; 
stroke-linecap:round; stroke-linejoin:round;fill-rule:evenodd;"
d="M 173.0600,136.0600
171.6600,136.0600
171.6600,133.9600
173.0600,133.9600
Z" /> 
<path style="fill:#000000; fill-opacity:1.0000; 
stroke:#000000; stroke-width:0.0000; stroke-opacity:1; 
stroke-linecap:round; stroke-linejoin:round;fill-rule:evenodd;"
d="M 168.5600,126.9600
167.1600,126.9600
167.1600,124.8600
168.5600,124.8600
Z" /> 
<path style="fill:#000000; fill-opacity:1.0000; 
stroke:#000000; stroke-width:0.0000; stroke-opacity:1; 
stroke-linecap:round; stroke-linejoin:round;fill-rule:evenodd;"
d="M 173.0600,126.9600
171.6600,126.9600
171.6600,124.8600
173.0600,124.8600
Z" /> 
</g>
<g >
</g>
<g >
</g>
<g style="fill:#000000; fill-opacity:1.0000; 
stroke:#000000; stroke-width:0.0000; stroke-opacity:1; 
stroke-linecap:round; stroke-linejoin:round;">
<path style="fill:#000000; fill-opacity:1.0000; 
stroke:#000000; stroke-width:0.0000; stroke-opacity:1; 
stroke-linecap:round; stroke-linejoin:round;fill-rule:evenodd;"
d="M 139.8250,75.6250
138.0950,75.6250
138.0950,74.6550
139.8250,74.6550
Z" /> 
<path style="fill:#000000; fill-opacity:1.0000; 
stroke:#000000; stroke-width:0.0000; stroke-opacity:1; 
stroke-linecap:round; stroke-linejoin:round;fill-rule:evenodd;"
d="M 139.8250,72.6650
138.0950,72.6650
138.0950,71.6950
139.8250,71.6950
Z" /> 
</g>
<g >
</g>
<g style="fill:#000000; fill-opacity:1.0000; 
stroke:#000000; stroke-width:0.0000; stroke-opacity:1; 
stroke-linecap:round; stroke-linejoin:round;">
<path style="fill:#000000; fill-opacity:1.0000; 
stroke:#000000; stroke-width:0.0000; stroke-opacity:1; 
stroke-linecap:round; stroke-linejoin:round;fill-rule:evenodd;"
d="M 160.3550,82.4140
159.6850,82.4140
159.6850,81.8140
160.3550,81.8140
Z" /> 
<path style="fill:#000000; fill-opacity:1.0000; 
stroke:#000000; stroke-width:0.0000; stroke-opacity:1; 
stroke-linecap:round; stroke-linejoin:round;fill-rule:evenodd;"
d="M 160.3550,81.5400
159.6850,81.5400
159.6850,80.9400
160.3550,80.9400
Z" /> 
</g>
<g >
</g>
<g style="fill:#000000; fill-opacity:1.0000; 
stroke:#000000; stroke-width:0.0000; stroke-opacity:1; 
stroke-linecap:round; stroke-linejoin:round;">
<path style="fill:#000000; fill-opacity:1.0000; 
stroke:#000000; stroke-width:0.0000; stroke-opacity:1; 
stroke-linecap:round; stroke-linejoin:round;fill-rule:evenodd;"
d="M 178.3000,75.9100
177.3000,75.9100
177.3000,74.8100
178.3000,74.8100
Z" /> 
<path style="fill:#000000; fill-opacity:1.0000; 
stroke:#000000; stroke-width:0.0000; stroke-opacity:1; 
stroke-linecap:round; stroke-linejoin:round;fill-rule:evenodd;"
d="M 178.3000,74.2100
177.3000,74.2100
177.3000,73.1100
178.3000,73.1100
Z" /> 
</g>
<g >
</g>
<g style="fill:#000000; fill-opacity:1.0000; 
stroke:#000000; stroke-width:0.0000; stroke-opacity:1; 
stroke-linecap:round; stroke-linejoin:round;">
<path style="fill:#000000; fill-opacity:1.0000; 
stroke:#000000; stroke-width:0.0000; stroke-opacity:1; 
stroke-linecap:round; stroke-linejoin:round;fill-rule:evenodd;"
d="M 155.5950,82.4140
154.9250,82.4140
154.9250,81.8140
155.5950,81.8140
Z" /> 
<path style="fill:#000000; fill-opacity:1.0000; 
stroke:#000000; stroke-width:0.0000; stroke-opacity:1; 
stroke-linecap:round; stroke-linejoin:round;fill-rule:evenodd;"
d="M 155.5950,81.5400
154.9250,81.5400
154.9250,80.9400
155.5950,80.9400
Z" /> 
</g>
<g >
</g>
<g style="fill:#000000; fill-opacity:1.0000; 
stroke:#000000; stroke-width:0.0000; stroke-opacity:1; 
stroke-linecap:round; stroke-linejoin:round;">
<path style="fill:#000000; fill-opacity:1.0000; 
stroke:#000000; stroke-width:0.0000; stroke-opacity:1; 
stroke-linecap:round; stroke-linejoin:round;fill-rule:evenodd;"
d="M 173.2800,74.9000
172.1600,74.9000
172.1600,74.1300
173.2800,74.1300
Z" /> 
<path style="fill:#000000; fill-opacity:1.0000; 
stroke:#000000; stroke-width:0.0000; stroke-opacity:1; 
stroke-linecap:round; stroke-linejoin:round;fill-rule:evenodd;"
d="M 173.2800,73.1900
172.1600,73.1900
172.1600,72.4200
173.2800,72.4200
Z" /> 
</g>
<g >
</g>
<g style="fill:#000000; fill-opacity:1.0000; 
stroke:#000000; stroke-width:0.0000; stroke-opacity:1; 
stroke-linecap:round; stroke-linejoin:round;">
<path style="fill:#000000; fill-opacity:1.0000; 
stroke:#000000; stroke-width:0.0000; stroke-opacity:1; 
stroke-linecap:round; stroke-linejoin:round;fill-rule:evenodd;"
d="M 147.6200,82.4140
147.0200,82.4140
147.0200,81.8740
147.6200,81.8740
Z" /> 
<path style="fill:#000000; fill-opacity:1.0000; 
stroke:#000000; stroke-width:0.0000; stroke-opacity:1; 
stroke-linecap:round; stroke-linejoin:round;fill-rule:evenodd;"
d="M 147.6200,81.5500
147.0200,81.5500
147.0200,81.0100
147.6200,81.0100
Z" /> 
</g>
<g >
</g>
<g >
</g>
<g >
</g>
</g> 
</svg>
